<?xml version="1.0" standalone="no"?>
<!DOCTYPE svg PUBLIC "-//W3C//DTD SVG 20010904//EN"
 "http://www.w3.org/TR/2001/REC-SVG-20010904/DTD/svg10.dtd">
<svg version="1.0" xmlns="http://www.w3.org/2000/svg"
 width="512.000000pt" height="512.000000pt" viewBox="0 0 512.000000 512.000000"
 preserveAspectRatio="xMidYMid meet">
<metadata>
Created by potrace 1.11, written by Peter Selinger 2001-2013
</metadata>
<g transform="translate(0.000000,512.000000) scale(0.100000,-0.100000)"
fill="#000000" stroke="none">
<path d="M330 4514 c-85 -23 -141 -54 -200 -115 -59 -60 -104 -138 -120 -209
-6 -28 -9 -424 -10 -1045 0 -1088 -1 -1068 57 -1170 51 -92 154 -175 248 -200
17 -5 37 -10 45 -12 8 -3 144 -5 302 -7 158 -1 289 -4 292 -7 3 -3 6 -183 6
-401 1 -307 5 -407 16 -443 49 -163 182 -279 350 -305 46 -7 628 -9 1769 -7
l1700 2 55 24 c115 48 206 139 252 251 l23 55 0 1050 c0 982 -1 1053 -18 1099
-38 103 -118 196 -212 244 -81 41 -119 45 -417 46 -158 1 -289 4 -292 7 -3 3
-6 183 -6 401 -1 427 -3 440 -57 539 -31 58 -112 136 -173 168 -100 52 -36 50
-1860 50 -1444 -1 -1703 -3 -1750 -15z m3491 -251 c43 -19 75 -52 94 -98 5
-11 9 -68 10 -127 l2 -108 -1842 0 -1841 0 1 108 c2 133 18 171 88 217 16 10
45 21 64 24 20 3 788 6 1707 5 1663 0 1671 -1 1717 -21z m100 -582 c7 -1 9
-289 2 -306 -2 -7 -625 -10 -1841 -10 l-1837 0 -1 150 c0 83 1 155 3 160 2 8
574 10 1836 9 1007 0 1835 -2 1838 -3z m-2947 -602 c-23 -64 -22 -60 -23 -582
l-1 -498 -294 3 -294 3 -39 31 c-81 66 -77 37 -78 591 l0 493 371 0 372 0 -14
-41z m3823 5 c21 -17 47 -46 58 -65 19 -33 20 -53 20 -1039 l0 -1005 -27 -46
c-18 -31 -41 -53 -73 -69 l-46 -24 -1697 0 -1697 1 -42 21 c-44 23 -74 58 -90
107 -7 19 -10 382 -10 1020 0 943 1 992 18 1025 27 52 40 65 84 89 l40 21
1712 -2 1711 -3 39 -31z"/>
<path d="M2605 2563 c-133 -22 -201 -49 -292 -116 -145 -107 -237 -293 -234
-471 1 -58 3 -72 17 -141 30 -145 159 -306 304 -379 197 -98 420 -82 604 43
l29 20 51 -33 c236 -148 532 -119 726 73 121 119 172 236 176 404 2 114 -11
178 -57 274 -125 262 -437 391 -717 297 -47 -16 -90 -38 -149 -75 l-32 -20
-34 25 c-42 32 -127 70 -192 85 -51 12 -165 20 -200 14z m207 -275 c62 -26 70
-41 48 -87 -58 -121 -58 -317 -1 -446 l20 -45 -37 -25 c-147 -97 -367 -43
-466 114 -58 92 -66 218 -20 321 44 99 151 183 251 196 20 2 38 6 40 8 8 8
120 -17 165 -36z m738 -2 c167 -83 239 -280 163 -446 -93 -202 -336 -266 -515
-135 -224 164 -161 521 107 602 68 21 182 11 245 -21z"/>
</g>
</svg>
