<?xml version="1.0" standalone="no"?>
<!DOCTYPE svg PUBLIC "-//W3C//DTD SVG 20010904//EN"
 "http://www.w3.org/TR/2001/REC-SVG-20010904/DTD/svg10.dtd">
<svg version="1.0" xmlns="http://www.w3.org/2000/svg"
 width="512.000000pt" height="512.000000pt" viewBox="0 0 512.000000 512.000000"
 preserveAspectRatio="xMidYMid meet">
<metadata>
Created by potrace 1.11, written by Peter Selinger 2001-2013
</metadata>
<g transform="translate(0.000000,512.000000) scale(0.100000,-0.100000)"
fill="#000000" stroke="none">
<path d="M825 4530 c-6 -19 -8 -19 -23 -4 -15 15 -16 15 -23 -2 -5 -13 -8 -14
-8 -4 -1 11 -13 15 -43 15 -26 0 -48 -6 -56 -15 -8 -8 -11 -9 -7 -2 3 6 3 12
-2 13 -4 0 -18 2 -30 3 -13 2 -23 -2 -23 -7 0 -5 -7 -4 -15 3 -12 10 -15 9
-16 -6 0 -15 -2 -16 -7 -4 -8 17 -42 23 -42 8 0 -7 -5 -7 -13 0 -8 7 -18 7
-27 2 -9 -6 -17 -5 -22 3 -6 9 -8 9 -8 -1 0 -7 -5 -10 -11 -7 -6 4 -26 8 -44
9 -27 1 -31 -1 -23 -12 9 -10 8 -12 -3 -10 -8 2 -17 8 -21 13 -5 6 -8 5 -8 -4
0 -11 -3 -11 -16 -1 -12 11 -15 11 -12 0 2 -7 -3 -15 -11 -18 -8 -2 -11 0 -8
5 3 5 0 10 -8 10 -8 0 -12 -3 -10 -6 2 -4 -8 -11 -21 -18 -18 -8 -23 -8 -18 0
3 7 -3 3 -13 -8 -21 -24 -74 -67 -55 -45 6 8 12 18 12 24 0 5 -14 -9 -31 -32
-17 -23 -33 -42 -35 -42 -3 0 -2 5 1 10 3 6 1 10 -6 10 -7 0 -9 -10 -7 -25 3
-13 1 -22 -3 -19 -5 3 -17 0 -26 -5 -11 -6 -13 -11 -5 -11 7 0 10 -5 7 -10 -4
-6 -11 -8 -16 -5 -9 6 -12 -3 -12 -37 0 -10 -5 -14 -15 -10 -10 3 -13 1 -8 -6
3 -6 2 -14 -4 -17 -8 -5 -8 -11 0 -20 12 -14 -11 -40 -26 -27 -4 4 -2 -2 6
-12 9 -12 10 -17 3 -12 -10 6 -13 -210 -13 -1043 0 -830 3 -1051 13 -1051 7 0
8 -3 2 -8 -18 -13 -16 -32 3 -25 14 5 15 4 4 -8 -10 -11 -8 -17 10 -32 17 -14
18 -17 5 -13 -15 5 -16 3 -7 -15 6 -11 18 -23 26 -26 8 -3 14 -9 14 -15 0 -5
-5 -6 -12 -2 -7 4 -8 3 -4 -4 4 -6 14 -8 23 -5 10 4 14 2 10 -4 -4 -6 -1 -18
7 -26 8 -8 12 -18 8 -22 -4 -5 2 -5 12 -1 16 5 17 4 6 -9 -11 -13 -10 -14 3
-9 10 3 20 -2 27 -16 6 -11 14 -19 18 -16 4 2 16 -2 27 -10 10 -8 15 -14 10
-14 -5 0 0 -7 11 -15 10 -8 30 -15 43 -15 14 0 33 -8 44 -18 11 -9 17 -11 13
-4 -10 17 -1 15 18 -4 10 -10 16 -11 16 -3 0 9 3 9 14 0 10 -9 16 -9 21 -1 5
8 10 8 20 0 16 -13 57 -22 50 -11 -3 5 2 12 11 15 23 9 31 7 16 -3 -10 -6 -9
-10 7 -14 12 -3 19 -1 15 4 -3 5 -1 9 5 9 5 0 12 -4 16 -10 3 -5 12 -7 20 -4
8 4 12 10 9 15 -3 5 2 6 10 3 9 -3 14 -10 11 -14 -7 -11 22 -6 32 5 4 4 2 5
-6 0 -10 -6 -12 -4 -6 5 6 10 11 9 22 -5 8 -12 13 -14 13 -6 0 11 3 11 14 2
11 -10 17 -8 25 6 10 17 10 17 11 -2 0 -17 2 -17 10 -5 9 13 11 13 20 0 8 -13
10 -12 10 3 0 10 5 15 10 12 6 -4 8 -11 5 -16 -4 -5 -1 -9 4 -9 6 0 11 5 11
11 0 8 4 8 14 0 10 -9 16 -9 21 -1 4 6 13 9 20 6 7 -2 18 1 24 7 9 9 11 8 6
-4 -4 -10 0 -16 9 -16 8 0 13 4 11 8 -3 4 2 10 11 13 8 3 13 2 10 -3 -3 -5 1
-12 10 -15 8 -3 13 -2 10 3 -3 5 1 12 10 15 8 3 12 2 9 -3 -3 -5 5 -11 17 -13
17 -2 22 -10 23 -35 1 -18 -2 -30 -7 -27 -10 6 -11 -10 -1 -20 9 -9 11 -46 2
-41 -12 8 -18 -22 -7 -33 12 -12 17 -113 6 -105 -9 5 -11 -11 -2 -20 9 -9 10
-106 2 -100 -10 6 -10 -11 0 -21 10 -11 9 -30 -2 -38 -13 -9 -16 -37 -6 -43 5
-3 7 4 5 16 -2 12 -1 19 2 15 10 -10 11 -56 1 -50 -9 6 -11 -10 -2 -19 9 -9
10 -106 2 -100 -10 5 -10 -11 -1 -21 10 -10 11 -46 1 -40 -4 3 -8 2 -9 -3 0
-4 -2 -16 -4 -26 -2 -9 0 -15 5 -12 4 3 10 -4 13 -15 3 -13 1 -18 -6 -13 -7 4
-6 -1 2 -10 7 -9 10 -17 5 -17 -5 0 -2 -5 6 -10 12 -8 12 -10 1 -10 -11 0 -11
-3 0 -17 8 -9 9 -14 2 -10 -12 8 -12 -17 0 -29 4 -4 7 -16 7 -26 0 -12 4 -16
12 -12 7 5 9 0 6 -14 -4 -14 1 -26 18 -39 23 -17 35 -41 14 -28 -16 10 -11 -1
7 -16 14 -12 16 -12 8 0 -6 10 -4 12 4 7 7 -5 10 -14 7 -22 -3 -8 0 -11 10 -7
13 5 19 -8 15 -30 -1 -5 3 -6 9 -2 5 3 10 2 10 -3 0 -5 9 -12 20 -15 11 -3 20
-12 20 -21 0 -9 4 -16 10 -16 5 0 9 3 7 8 -1 4 2 7 8 7 5 0 10 -6 12 -13 2
-18 13 -29 13 -13 0 7 5 9 10 6 6 -4 8 -10 5 -15 -3 -5 0 -12 6 -16 8 -4 9 -3
5 4 -4 7 -2 12 3 12 6 0 11 -4 11 -8 0 -4 12 -9 28 -10 15 -1 29 -7 31 -13 1
-5 9 -2 17 8 13 17 14 17 8 0 -7 -20 6 -22 25 -5 11 11 12 10 6 -1 -6 -11 -3
-13 12 -9 11 3 28 1 38 -4 12 -8 20 -6 26 3 7 12 9 11 9 -1 0 -13 1 -13 10 0
9 13 11 13 20 0 8 -13 10 -12 11 5 0 15 2 16 7 5 4 -8 20 -15 37 -15 17 0 33
7 37 15 6 13 7 13 7 0 1 -11 13 -15 43 -15 26 0 48 6 56 15 8 8 11 10 8 3 -8
-16 13 -22 46 -12 22 6 26 4 22 -9 -3 -10 1 -7 8 4 12 20 14 20 27 6 13 -14
15 -13 22 4 5 13 8 14 8 4 1 -11 13 -15 43 -15 26 0 48 6 56 15 8 8 11 9 7 3
-3 -7 -3 -13 2 -14 4 0 18 -2 31 -3 12 -2 22 2 22 7 0 5 7 4 15 -3 12 -10 15
-9 16 6 0 15 2 16 7 4 8 -17 42 -23 42 -8 0 5 5 6 12 2 17 -10 68 -11 68 0 0
5 7 3 15 -4 12 -10 15 -9 16 6 0 15 2 16 7 4 8 -17 42 -23 42 -8 0 5 5 6 12 2
17 -10 68 -11 68 0 0 5 7 3 15 -4 12 -10 15 -9 16 6 0 15 2 16 7 4 8 -17 42
-23 42 -8 0 5 5 6 12 2 17 -10 68 -11 68 0 0 5 7 3 15 -4 12 -10 15 -9 16 6 0
15 2 16 7 4 8 -17 42 -23 42 -8 0 5 5 6 12 2 21 -13 73 -10 86 6 8 8 11 10 8
3 -8 -16 13 -22 46 -12 22 6 26 4 22 -9 -3 -10 1 -7 8 4 12 20 14 20 27 6 13
-14 15 -13 22 4 5 13 8 14 8 4 1 -11 13 -15 43 -15 26 0 48 6 56 15 8 8 11 10
8 3 -8 -16 13 -22 46 -12 22 6 26 4 22 -9 -3 -10 1 -7 8 4 12 20 14 20 27 6
13 -14 15 -13 22 4 5 13 8 14 8 4 1 -11 13 -15 43 -15 26 0 48 6 56 15 8 8 11
10 8 3 -8 -16 13 -22 46 -12 22 6 26 4 22 -9 -3 -10 1 -7 8 4 12 20 14 20 27
6 13 -14 15 -13 22 4 5 13 8 14 8 4 1 -11 13 -15 43 -15 26 0 48 6 56 15 8 8
11 10 8 3 -8 -16 13 -22 46 -12 22 6 26 4 22 -9 -3 -10 1 -7 8 4 12 20 14 20
27 6 13 -14 15 -13 22 4 5 13 8 14 8 4 1 -11 13 -15 43 -15 26 0 48 6 56 15 8
8 11 10 8 3 -8 -16 13 -22 46 -12 22 6 26 4 22 -9 -3 -10 1 -7 8 4 12 20 14
20 27 6 13 -14 15 -13 22 4 5 13 8 14 8 4 1 -11 13 -15 43 -15 26 0 48 6 56
15 8 8 11 9 7 3 -3 -7 -3 -13 2 -14 4 0 18 -2 31 -3 12 -2 22 2 22 7 0 5 7 4
15 -3 12 -10 15 -9 16 6 0 15 2 16 7 4 8 -17 42 -23 42 -8 0 5 5 6 12 2 17
-10 68 -11 68 0 0 5 7 3 15 -4 12 -10 15 -9 16 6 0 15 2 16 7 4 8 -17 42 -23
42 -8 0 5 5 6 12 2 17 -10 68 -11 68 0 0 5 7 3 15 -4 12 -10 15 -9 16 6 0 15
2 16 7 4 8 -17 42 -23 42 -8 0 5 5 6 12 2 17 -10 68 -11 68 0 0 5 7 3 15 -4
12 -10 15 -9 16 6 0 15 2 16 7 4 8 -17 42 -23 42 -8 0 5 5 6 12 2 21 -13 73
-10 86 6 8 8 11 10 8 3 -8 -16 13 -22 46 -12 22 6 26 4 22 -9 -3 -10 1 -6 9 7
9 15 16 19 18 12 3 -8 24 -14 52 -14 29 -1 46 2 43 8 -2 6 7 11 19 11 14 0 21
-4 17 -10 -3 -6 1 -5 10 1 8 7 18 10 21 6 4 -3 7 0 7 8 0 11 2 11 10 -1 6 -9
10 -11 10 -3 0 7 6 10 14 7 7 -3 16 2 19 10 4 9 13 13 22 10 8 -3 15 -1 15 5
0 6 10 11 23 11 18 0 19 2 7 11 -12 8 -9 10 13 6 23 -4 25 -2 15 11 -10 13
-10 14 0 8 6 -4 12 -3 12 3 0 6 6 8 14 5 7 -3 16 2 19 10 4 11 1 14 -11 10 -9
-2 -3 2 13 10 17 8 27 15 23 16 -5 0 0 8 10 18 9 11 21 17 26 14 5 -3 6 0 2 7
-9 14 3 53 14 46 5 -3 12 0 17 7 11 19 13 39 2 32 -5 -3 -6 -10 -3 -16 5 -7 2
-8 -5 -4 -9 6 -9 12 2 24 8 10 12 23 9 31 -2 8 0 11 6 8 5 -4 12 3 16 16 7 26
6 2158 -1 2140 -2 -7 -10 -13 -15 -13 -6 0 -8 3 -5 7 4 3 -1 15 -10 25 -16 18
-16 19 3 13 18 -6 18 -6 1 8 -10 8 -19 24 -20 36 -1 11 -7 23 -15 26 -7 3 -10
9 -7 15 3 5 -1 10 -10 10 -12 0 -15 6 -10 23 4 14 3 18 -3 9 -6 -9 -12 -6 -20
14 -9 17 -18 24 -28 20 -11 -4 -18 1 -21 14 -3 11 -12 19 -21 18 -8 -2 -17 4
-19 12 -4 13 -3 13 6 0 6 -8 11 -10 11 -4 0 18 -13 24 -27 13 -10 -9 -13 -8
-13 4 0 9 -5 19 -12 23 -8 5 -9 2 -4 -11 6 -18 6 -18 -15 1 -11 10 -24 18 -28
17 -3 0 -5 3 -4 7 1 4 -7 6 -18 3 -12 -4 -25 0 -30 8 -7 12 -9 12 -9 0 0 -11
-3 -11 -17 0 -15 12 -16 12 -8 -1 6 -10 2 -9 -12 3 -13 11 -23 14 -27 8 -4 -6
-14 -7 -23 -4 -12 5 -14 3 -8 -8 8 -12 6 -12 -8 0 -10 8 -20 11 -24 8 -3 -4
-13 -2 -22 3 -10 5 -23 5 -31 0 -8 -5 -21 -5 -31 1 -12 6 -20 5 -25 -2 -4 -8
-9 -7 -15 2 -7 11 -9 9 -9 -6 -1 -20 -1 -20 -15 -1 -8 11 -15 15 -15 9 0 -7
-11 -10 -26 -7 -19 3 -24 1 -18 -8 6 -10 4 -10 -7 -2 -20 15 -61 16 -52 1 4
-7 0 -6 -10 2 -14 11 -20 11 -34 0 -9 -8 -14 -9 -10 -2 11 17 -16 22 -34 6
-14 -12 -19 -12 -33 2 -9 9 -16 12 -16 6 0 -6 -5 -11 -11 -11 -5 0 -7 5 -4 10
3 6 1 10 -4 10 -6 0 -11 -7 -11 -16 0 -14 -2 -14 -22 0 -26 18 -33 57 -9 48
13 -5 14 -3 4 9 -6 8 -14 27 -17 43 -4 23 -2 27 11 21 14 -5 13 -2 -3 16 -10
12 -13 19 -6 15 7 -4 12 -1 12 9 0 9 -3 14 -7 12 -10 -6 -9 50 0 60 9 9 9 25
0 20 -10 -6 -9 50 0 60 9 9 9 25 0 20 -10 -6 -9 50 0 60 9 9 9 25 0 20 -10 -6
-9 50 0 60 9 9 9 25 0 20 -10 -6 -9 50 0 60 9 9 9 25 0 20 -10 -6 -9 50 0 60
9 9 9 25 0 20 -10 -6 -9 50 0 60 10 9 9 25 -1 19 -5 -3 -9 1 -9 9 0 8 4 12 9
9 4 -3 8 0 8 5 0 6 -4 11 -10 11 -5 0 -10 5 -10 11 0 5 4 8 8 5 11 -7 8 31 -3
41 -4 5 -5 2 0 -6 6 -10 4 -12 -4 -7 -9 6 -9 11 1 24 10 13 10 14 0 8 -9 -6
-11 -1 -8 19 4 24 3 25 -11 13 -15 -11 -16 -11 -10 5 4 10 0 31 -8 48 -9 16
-12 29 -8 30 5 0 -3 5 -16 10 -20 8 -21 12 -10 25 10 12 10 15 -2 12 -8 -2
-13 3 -11 11 3 12 1 12 -14 0 -12 -9 -15 -9 -10 -1 4 7 2 12 -4 12 -6 0 -8 5
-5 10 3 6 1 10 -5 10 -6 0 -8 4 -5 10 4 6 -1 7 -11 3 -13 -5 -16 -3 -11 10 4
11 2 14 -7 11 -8 -3 -26 7 -40 23 -14 15 -26 24 -26 19 0 -5 -8 -2 -17 5 -14
12 -16 12 -9 -1 4 -9 2 -8 -7 2 -8 10 -17 15 -20 11 -4 -3 -15 1 -25 10 -10
10 -22 14 -25 11 -4 -4 -13 -1 -21 5 -11 9 -16 9 -22 0 -4 -7 -3 -9 4 -5 6 3
13 2 16 -3 9 -13 -19 -7 -38 8 -13 11 -16 11 -16 0 0 -12 -2 -12 -9 -1 -7 11
-9 11 -14 -2 -4 -9 -12 -16 -19 -15 -10 0 -10 2 0 6 23 9 12 18 -23 18 -24 0
-35 -5 -36 -15 0 -13 -1 -13 -7 0 -5 10 -21 15 -47 15 -23 0 -46 -6 -53 -15
-8 -8 -11 -10 -8 -3 8 16 -13 22 -46 12 -22 -6 -26 -4 -22 9 3 10 -1 7 -8 -4
-12 -20 -14 -20 -27 -6 -13 14 -15 13 -22 -4 -5 -13 -8 -14 -8 -4 -1 11 -13
15 -43 15 -26 0 -48 -6 -56 -15 -8 -8 -11 -10 -8 -3 8 16 -13 22 -46 12 -22
-6 -26 -4 -22 9 3 10 -1 7 -8 -4 -12 -20 -14 -20 -27 -6 -13 14 -15 13 -22 -4
-5 -13 -8 -14 -8 -4 -1 11 -13 15 -43 15 -26 0 -48 -6 -56 -15 -8 -8 -11 -10
-8 -3 8 16 -13 22 -46 12 -22 -6 -26 -4 -22 9 3 10 -1 7 -8 -4 -12 -20 -14
-20 -27 -6 -13 14 -15 13 -22 -4 -5 -13 -8 -14 -8 -4 -1 11 -13 15 -43 15 -26
0 -48 -6 -56 -15 -8 -8 -11 -10 -8 -3 8 16 -13 22 -46 12 -22 -6 -26 -4 -22 9
3 10 -1 7 -8 -4 -12 -20 -14 -20 -27 -6 -13 14 -15 13 -22 -4 -5 -13 -8 -14
-8 -4 -1 11 -13 15 -43 15 -26 0 -48 -6 -56 -15 -8 -8 -11 -9 -7 -2 3 6 3 12
-2 13 -4 0 -18 2 -30 3 -13 2 -23 -2 -23 -7 0 -5 -7 -4 -15 3 -12 10 -15 9
-16 -6 0 -15 -2 -16 -7 -4 -8 17 -42 23 -42 8 0 -5 -5 -6 -12 -2 -17 10 -68
11 -68 0 0 -5 -7 -3 -15 4 -12 10 -15 9 -16 -6 0 -15 -2 -16 -7 -4 -8 17 -42
23 -42 8 0 -5 -5 -6 -12 -2 -17 10 -68 11 -68 0 0 -5 -7 -3 -15 4 -12 10 -15
9 -16 -6 0 -15 -2 -16 -7 -4 -8 17 -42 23 -42 8 0 -5 -5 -6 -12 -2 -17 10 -68
11 -68 0 0 -5 -7 -3 -15 4 -12 10 -15 9 -16 -6 0 -15 -2 -16 -7 -4 -8 17 -42
23 -42 8 0 -5 -5 -6 -12 -2 -21 13 -73 10 -86 -6 -8 -8 -11 -10 -8 -3 8 16
-13 22 -46 12 -22 -6 -26 -4 -22 9 3 10 -1 7 -8 -4 -12 -20 -14 -20 -27 -6
-13 14 -15 13 -22 -4 -5 -13 -8 -14 -8 -4 -1 11 -13 15 -43 15 -26 0 -48 -6
-56 -15 -8 -8 -11 -10 -8 -3 8 16 -13 22 -46 12 -22 -6 -26 -4 -22 9 3 10 -1
7 -8 -4 -12 -20 -14 -20 -27 -6 -13 14 -15 13 -22 -4 -5 -13 -8 -14 -8 -4 -1
11 -13 15 -43 15 -26 0 -48 -6 -56 -15 -8 -8 -11 -10 -8 -3 8 16 -13 22 -46
12 -22 -6 -26 -4 -22 9 3 10 -1 7 -8 -4 -12 -20 -14 -20 -27 -6 -13 14 -15 13
-22 -4 -5 -13 -8 -14 -8 -4 -1 11 -13 15 -43 15 -26 0 -48 -6 -56 -15 -8 -8
-11 -10 -8 -3 8 16 -13 22 -46 12 -22 -6 -26 -4 -22 9 3 10 -1 7 -8 -4 -12
-20 -14 -20 -27 -6 -13 14 -15 13 -22 -4 -5 -13 -8 -14 -8 -4 -1 11 -13 15
-43 15 -26 0 -48 -6 -56 -15 -8 -8 -11 -10 -8 -3 8 16 -13 22 -46 12 -21 -6
-26 -4 -21 7 3 8 3 14 0 14 -3 0 -9 -9 -12 -20z m3025 -20 c0 -5 -5 -10 -11
-10 -5 0 -7 5 -4 10 3 6 8 10 11 10 2 0 4 -4 4 -10z m-3220 -214 c0 -3 -4 -8
-10 -11 -5 -3 -10 -1 -10 4 0 6 5 11 10 11 6 0 10 -2 10 -4z m379 -18 c1 6 6
12 12 12 5 0 7 -5 3 -11 -5 -8 -1 -8 14 0 27 14 35 14 26 -1 -4 -7 3 -4 15 6
16 15 20 16 16 5 -4 -10 0 -16 9 -16 8 0 13 4 10 9 -3 4 2 8 11 8 9 0 13 -4
10 -10 -3 -5 -1 -10 4 -10 6 0 11 5 11 11 0 6 5 7 13 2 16 -11 67 -12 61 -1
-6 10 30 11 40 1 10 -11 86 -12 80 -1 -3 4 4 8 16 8 12 0 18 -4 15 -10 -3 -5
-1 -10 4 -10 6 0 11 5 11 11 0 8 4 8 14 0 11 -9 20 -10 35 -1 16 8 21 8 22 -2
0 -7 4 -4 9 7 l9 20 1 -20 c1 -11 4 -14 7 -7 2 6 9 12 14 12 6 0 7 -5 3 -11
-5 -8 -1 -8 14 0 27 14 35 14 26 -1 -4 -7 3 -4 15 6 16 14 20 16 16 5 -4 -12
2 -15 24 -15 17 0 28 3 25 8 -6 10 30 11 40 1 10 -11 86 -12 80 -1 -3 4 2 8
11 8 9 0 14 -4 11 -8 -3 -5 1 -9 9 -9 8 0 12 4 9 9 -6 10 30 11 40 1 10 -11
86 -12 80 -1 -3 4 4 8 16 8 12 0 18 -4 15 -10 -3 -5 -1 -10 4 -10 6 0 11 5 11
11 0 6 5 7 13 2 16 -11 67 -12 61 -1 -6 10 30 11 40 1 10 -11 86 -12 80 -1 -3
4 4 8 16 8 12 0 18 -4 15 -10 -3 -5 -1 -10 4 -10 6 0 11 5 11 11 0 8 5 7 15
-1 12 -10 19 -10 27 -2 15 15 32 16 23 2 -3 -5 -1 -10 4 -10 6 0 11 5 11 11 0
6 5 7 13 2 16 -11 67 -12 61 -1 -6 10 30 11 40 1 10 -11 86 -12 80 -1 -3 4 4
8 16 8 12 0 18 -4 15 -10 -3 -5 -1 -10 4 -10 6 0 11 5 11 11 0 8 4 8 14 0 11
-9 20 -10 35 -1 16 8 21 8 22 -2 0 -7 4 -4 9 7 l9 20 1 -20 c1 -11 4 -14 7 -7
2 6 9 12 14 12 6 0 7 -5 3 -11 -5 -8 -1 -8 14 0 27 14 35 14 26 -1 -4 -7 3 -4
15 6 16 15 20 16 16 5 -4 -10 0 -16 9 -16 8 0 13 4 10 9 -3 4 2 8 11 8 9 0 13
-4 10 -10 -3 -5 -1 -10 4 -10 6 0 11 5 11 11 0 6 5 7 13 2 16 -11 67 -12 61
-1 -6 10 30 11 40 1 10 -11 86 -12 80 -1 -3 4 4 8 16 8 12 0 18 -4 15 -10 -3
-5 -1 -10 4 -10 6 0 11 5 11 11 0 8 4 8 14 0 11 -9 20 -10 35 -1 16 8 21 8 22
-2 0 -7 4 -4 9 7 l9 20 1 -20 c1 -11 4 -14 7 -7 2 6 9 12 14 12 6 0 7 -5 3
-11 -5 -8 -1 -8 14 0 27 14 35 14 26 -1 -4 -7 3 -4 15 6 17 16 21 17 16 4 -7
-17 9 -19 33 -5 7 5 12 3 13 -5 0 -7 4 -4 9 7 l9 20 1 -20 c1 -11 4 -14 7 -7
2 6 9 12 14 12 6 0 7 -5 3 -11 -5 -8 -1 -8 14 0 27 14 35 14 26 -1 -4 -7 3 -4
15 6 16 15 20 16 16 5 -4 -10 0 -16 9 -16 8 0 13 4 10 9 -3 4 2 8 11 8 9 0 13
-4 10 -10 -3 -5 -1 -10 4 -10 6 0 11 5 11 11 0 6 5 7 13 2 16 -11 67 -12 61
-1 -6 10 30 11 40 1 10 -11 86 -12 80 -1 -3 4 4 8 16 8 12 0 18 -4 15 -10 -3
-5 -1 -10 4 -10 6 0 11 5 11 11 0 8 4 8 14 0 11 -9 20 -9 35 -2 14 8 21 8 24
-2 3 -6 6 -3 6 7 1 20 1 20 17 0 8 -10 13 -13 9 -6 -3 6 -1 12 4 12 6 0 11 -5
11 -11 0 -8 5 -7 15 1 13 10 19 10 35 -5 11 -10 20 -15 20 -10 0 4 8 -1 18
-12 9 -10 13 -13 8 -6 -15 23 -2 14 29 -19 17 -18 23 -28 15 -24 -8 5 -5 -1 8
-13 12 -12 20 -26 17 -32 -4 -5 -1 -9 6 -9 8 0 7 -5 -2 -17 -8 -9 -9 -14 -3
-10 7 4 15 0 18 -9 3 -8 2 -12 -3 -9 -5 3 -12 1 -16 -5 -3 -5 -1 -10 4 -10 6
0 11 -5 11 -11 0 -5 -4 -7 -10 -4 -6 3 -7 -1 -4 -10 4 -9 11 -12 18 -8 7 5 3
0 -7 -9 -17 -16 -15 -22 6 -19 13 2 8 -11 -10 -24 -13 -9 -13 -14 -3 -20 9 -6
11 -4 5 6 -5 8 -4 11 0 6 11 -9 14 -48 4 -42 -4 3 -13 -3 -20 -12 -8 -10 -9
-14 -2 -10 6 4 14 4 17 -1 6 -9 -97 -7 -113 2 -6 4 -11 0 -12 -11 0 -16 -1
-16 -9 2 -5 11 -9 14 -9 7 -1 -7 -6 -10 -11 -7 -6 4 -8 11 -5 16 4 5 1 9 -4 9
-6 0 -11 -7 -11 -15 0 -13 -4 -14 -20 -5 -14 7 -20 7 -20 0 0 -5 -5 -10 -11
-10 -5 0 -8 4 -4 9 3 5 1 13 -5 16 -6 4 -10 3 -9 -2 3 -19 -2 -23 -21 -13 -16
9 -20 8 -21 -7 0 -16 -1 -16 -9 2 -5 11 -9 14 -9 7 -1 -7 -6 -10 -11 -7 -6 4
-8 11 -5 16 4 5 1 9 -4 9 -6 0 -11 -7 -11 -15 0 -13 -4 -14 -20 -5 -14 7 -20
7 -20 0 0 -5 -5 -10 -11 -10 -5 0 -8 4 -4 9 3 5 1 13 -5 16 -6 4 -10 3 -9 -2
3 -19 -2 -23 -21 -13 -16 9 -20 8 -21 -7 0 -16 -1 -16 -9 2 -5 11 -9 14 -9 7
-1 -7 -6 -10 -11 -7 -6 4 -8 11 -5 16 4 5 1 9 -4 9 -6 0 -11 -7 -11 -15 0 -13
-4 -14 -20 -5 -14 7 -20 7 -20 0 0 -5 -5 -10 -11 -10 -5 0 -8 4 -4 9 3 5 1 13
-5 16 -6 4 -10 3 -9 -2 3 -19 -2 -23 -21 -13 -16 9 -20 8 -21 -7 0 -16 -1 -16
-9 2 -5 11 -9 14 -9 7 -1 -7 -6 -10 -11 -7 -6 4 -8 11 -5 16 4 5 1 9 -4 9 -6
0 -11 -7 -11 -15 0 -13 -4 -14 -20 -5 -14 7 -20 7 -20 0 0 -5 -5 -10 -11 -10
-5 0 -8 4 -4 9 3 5 1 13 -5 16 -6 4 -10 3 -9 -2 3 -19 -2 -23 -21 -13 -16 9
-20 8 -21 -7 0 -16 -1 -16 -9 2 -5 11 -9 14 -9 7 -1 -7 -6 -10 -11 -7 -6 4 -8
11 -5 16 4 5 1 9 -4 9 -6 0 -11 -7 -11 -15 0 -13 -4 -14 -20 -5 -14 7 -20 7
-20 0 0 -5 -5 -10 -11 -10 -5 0 -8 4 -4 9 3 5 1 13 -5 16 -6 4 -10 3 -9 -2 3
-19 -2 -23 -21 -13 -16 9 -20 8 -21 -7 0 -16 -1 -16 -9 2 -5 11 -9 14 -9 7 -1
-7 -6 -10 -11 -7 -6 4 -8 11 -5 16 4 5 1 9 -4 9 -6 0 -11 -7 -11 -15 0 -13 -4
-14 -20 -5 -14 7 -20 7 -20 0 0 -5 -5 -10 -11 -10 -5 0 -8 4 -4 9 3 5 1 13 -5
16 -6 4 -10 3 -9 -2 3 -19 -2 -23 -21 -13 -16 9 -20 8 -21 -7 0 -16 -1 -16 -9
2 -5 11 -9 14 -9 7 -1 -7 -6 -10 -11 -7 -6 4 -8 11 -5 16 4 5 1 9 -4 9 -6 0
-11 -7 -11 -15 0 -13 -4 -14 -20 -5 -14 7 -20 7 -20 0 0 -5 -5 -10 -11 -10 -5
0 -8 4 -4 9 3 5 1 13 -5 16 -6 4 -10 3 -9 -2 3 -19 -2 -23 -21 -13 -16 9 -20
8 -21 -7 0 -16 -1 -16 -9 2 -5 11 -9 14 -9 7 -1 -7 -6 -10 -11 -7 -6 4 -8 11
-5 16 4 5 1 9 -4 9 -6 0 -11 -7 -11 -15 0 -13 -4 -14 -20 -5 -14 7 -20 7 -20
0 0 -5 -5 -10 -11 -10 -5 0 -8 4 -4 9 3 5 0 13 -6 17 -7 4 -9 3 -5 -4 3 -6 2
-13 -4 -17 -5 -3 -10 0 -10 7 0 9 -3 9 -10 -2 -9 -13 -14 -7 -11 13 0 4 -4 7
-9 7 -6 0 -10 -6 -10 -14 0 -11 -7 -13 -30 -6 -21 6 -30 5 -31 -3 0 -7 -4 -3
-9 8 -7 16 -9 16 -9 4 -1 -21 -33 -20 -43 1 -5 11 -7 10 -7 -5 -1 -17 -3 -17
-11 -5 -9 13 -10 13 -11 0 0 -10 -3 -8 -9 5 l-9 20 0 -20 c-1 -17 -3 -17 -11
-5 -7 11 -10 11 -10 2 0 -10 -5 -10 -20 -2 -15 8 -20 8 -20 -2 0 -9 -3 -9 -10
2 -7 11 -10 11 -10 2 0 -7 -5 -10 -10 -7 -6 4 -8 11 -5 16 4 5 1 9 -4 9 -6 0
-11 -7 -11 -15 0 -13 -4 -14 -20 -5 -14 7 -20 7 -20 0 0 -5 -5 -10 -11 -10 -5
0 -8 4 -4 9 3 5 0 13 -6 17 -7 4 -9 3 -5 -4 3 -6 2 -13 -4 -17 -5 -3 -10 2
-11 12 0 16 -1 16 -9 -2 -6 -13 -9 -15 -9 -5 -1 13 -2 13 -11 0 -8 -13 -10
-12 -11 5 -1 19 -2 19 -6 1 -4 -15 -7 -16 -14 -5 -7 12 -9 12 -9 -1 0 -13 -1
-13 -10 0 -7 11 -10 11 -10 2 0 -7 -5 -10 -10 -7 -6 4 -8 11 -5 16 4 5 1 9 -4
9 -6 0 -11 -6 -11 -14 0 -11 -7 -13 -30 -6 -21 6 -30 5 -31 -3 0 -7 -4 -3 -9
8 -7 16 -9 16 -9 4 -1 -21 -33 -20 -43 1 -5 11 -7 10 -7 -5 -1 -17 -3 -17 -11
-5 -9 13 -10 13 -11 0 0 -10 -3 -8 -9 5 l-9 20 0 -20 c-1 -17 -3 -17 -11 -5
-7 11 -10 11 -10 2 0 -10 -5 -10 -20 -2 -15 8 -20 8 -20 -2 0 -9 -3 -9 -10 2
-7 11 -10 11 -10 2 0 -7 -5 -10 -10 -7 -6 4 -8 11 -5 16 4 5 1 9 -4 9 -6 0
-11 -7 -11 -15 0 -13 -4 -14 -20 -5 -14 7 -20 7 -20 0 0 -5 -5 -10 -11 -10 -5
0 -8 4 -4 9 3 5 0 13 -6 17 -7 4 -9 3 -5 -4 3 -6 2 -13 -4 -17 -5 -3 -10 2
-11 12 0 16 -1 16 -9 -2 -6 -13 -9 -15 -9 -5 -1 13 -2 13 -11 0 -8 -13 -10
-12 -11 5 -1 19 -2 19 -6 1 -4 -15 -7 -16 -14 -5 -7 12 -9 12 -9 -1 0 -13 -1
-13 -10 0 -7 11 -10 11 -10 2 0 -7 -5 -10 -10 -7 -6 4 -8 11 -5 16 4 5 1 9 -4
9 -6 0 -11 -6 -11 -14 0 -11 -7 -13 -30 -6 -21 6 -30 5 -31 -3 0 -7 -4 -3 -9
8 -7 16 -9 16 -9 4 -1 -21 -33 -20 -43 1 -5 11 -7 10 -7 -5 -1 -17 -3 -17 -11
-5 -9 13 -10 13 -11 0 0 -10 -3 -8 -9 5 l-9 20 0 -20 c-1 -17 -3 -17 -11 -5
-7 11 -10 11 -10 2 0 -10 -5 -10 -20 -2 -15 8 -20 8 -20 -2 0 -9 -3 -9 -10 2
-7 11 -10 11 -10 2 0 -7 -5 -10 -10 -7 -6 4 -8 11 -5 16 4 5 1 9 -4 9 -6 0
-11 -7 -11 -15 0 -13 -4 -14 -20 -5 -14 7 -20 7 -20 0 0 -5 -5 -10 -11 -10 -5
0 -8 4 -4 9 3 5 0 13 -6 17 -7 4 -9 3 -5 -4 3 -6 2 -13 -4 -17 -5 -3 -10 2
-11 12 0 16 -1 16 -9 -2 -6 -13 -9 -15 -9 -5 -1 13 -2 13 -11 0 -8 -13 -10
-12 -11 5 -1 19 -2 19 -6 1 -4 -15 -7 -16 -14 -5 -7 12 -9 12 -9 -1 0 -13 -1
-13 -10 0 -7 11 -10 11 -10 2 0 -7 -5 -10 -10 -7 -6 4 -8 11 -5 16 4 5 1 9 -4
9 -6 0 -11 -6 -11 -14 0 -11 -7 -13 -30 -6 -21 6 -30 5 -31 -3 0 -7 -4 -3 -9
8 -7 16 -9 16 -9 4 -1 -21 -33 -20 -43 1 -5 11 -7 10 -7 -5 -1 -17 -3 -17 -11
-5 -9 13 -10 13 -11 0 0 -10 -3 -8 -9 5 l-9 20 0 -20 c-1 -17 -3 -17 -11 -5
-7 11 -10 11 -10 2 0 -10 -5 -10 -20 -2 -15 8 -20 8 -20 -2 0 -9 -3 -9 -10 2
-7 11 -10 11 -10 2 0 -7 -5 -10 -10 -7 -6 4 -8 11 -5 16 4 5 1 9 -4 9 -6 0
-11 -7 -11 -15 0 -13 -4 -14 -20 -5 -14 7 -20 7 -20 0 0 -5 -5 -10 -11 -10 -5
0 -8 4 -4 9 3 5 0 13 -6 17 -7 4 -9 3 -5 -4 3 -6 2 -13 -4 -17 -5 -3 -11 2
-11 12 -1 16 -2 16 -6 -1 -4 -15 -7 -16 -14 -5 -7 12 -9 12 -10 -1 0 -10 -3
-8 -9 5 l-9 20 0 -20 c-1 -17 -3 -17 -11 -5 -9 13 -10 13 -10 0 0 -13 -1 -13
-10 0 -7 11 -10 11 -10 2 0 -7 -5 -10 -10 -7 -6 4 -8 11 -5 16 4 5 1 9 -4 9
-6 0 -11 -6 -11 -14 0 -11 -7 -13 -30 -6 -21 6 -30 5 -31 -3 0 -7 -4 -3 -9 8
-7 16 -9 16 -9 4 -1 -21 -33 -20 -43 1 -5 11 -7 10 -7 -5 -1 -17 -3 -17 -11
-5 -9 13 -10 13 -11 0 0 -10 -3 -8 -9 5 l-9 20 0 -20 c-1 -17 -3 -17 -11 -5
-7 11 -10 11 -10 2 0 -10 -5 -10 -20 -2 -15 8 -20 8 -20 -2 0 -9 -3 -9 -10 2
-8 12 -10 12 -10 1 0 -8 -3 -11 -7 -8 -3 4 -13 1 -21 -6 -13 -10 -14 -9 -8 1
6 11 1 13 -20 10 -24 -2 -30 1 -32 20 -2 13 -8 20 -14 16 -7 -5 -8 -2 -2 7 5
8 7 22 6 32 -2 9 3 17 10 17 8 0 6 5 -5 11 -14 8 -16 14 -6 25 6 8 8 14 5 14
-4 0 -2 9 4 19 7 14 7 22 -2 27 -7 5 -8 3 -3 -6 6 -9 4 -11 -5 -5 -10 6 -10
10 3 19 12 9 13 16 4 31 -9 18 -9 18 5 7 14 -11 16 -10 14 12 -2 14 3 27 11
30 8 4 11 11 7 18 -5 8 -1 8 12 -2 10 -8 16 -11 12 -6 -13 15 11 45 32 41 11
-2 19 -1 19 3 -3 19 3 22 23 11 20 -11 21 -10 11 3 -10 12 -10 15 2 15 8 0 15
-4 15 -9 0 -4 5 -8 11 -8 5 0 7 5 4 10 -9 14 28 12 44 -2 11 -11 12 -10 6 2
-8 13 -6 13 7 2 11 -9 18 -10 23 -2 3 5 12 10 18 10 7 0 6 -4 -3 -10 -12 -7
-10 -9 7 -7 12 0 19 5 17 9 -3 4 4 8 16 8 12 0 18 -4 15 -10 -3 -5 -1 -10 4
-10 6 0 11 5 11 11 0 8 5 7 15 -1 12 -10 19 -10 27 -2 9 9 15 8 27 -1 12 -9
13 -9 7 1 -5 8 -1 12 11 12 11 0 25 -6 32 -12 11 -11 12 -10 6 2 -8 13 -6 13
7 2 11 -9 18 -10 23 -2 3 5 12 10 18 10 7 0 6 -4 -3 -10 -12 -7 -10 -9 7 -7
12 0 19 5 17 9 -3 4 2 8 11 8 9 0 14 -4 11 -8 -3 -5 1 -9 9 -9 8 0 12 4 9 9
-8 13 31 9 45 -4 11 -11 12 -10 6 2 -8 13 -6 13 7 2 11 -9 18 -10 23 -2 3 5
12 10 18 10 7 0 6 -4 -3 -10 -12 -7 -10 -9 7 -7 12 0 19 5 16 10 -7 12 30 4
39 -8 4 -6 8 -1 9 10 l0 20 9 -20 c5 -11 9 -14 9 -7z m181 18 c0 -3 -4 -8 -10
-11 -5 -3 -10 -1 -10 4 0 6 5 11 10 11 6 0 10 -2 10 -4z m240 0 c0 -3 -4 -8
-10 -11 -5 -3 -10 -1 -10 4 0 6 5 11 10 11 6 0 10 -2 10 -4z m560 0 c0 -3 -4
-8 -10 -11 -5 -3 -10 -1 -10 4 0 6 5 11 10 11 6 0 10 -2 10 -4z m240 0 c0 -3
-4 -8 -10 -11 -5 -3 -10 -1 -10 4 0 6 5 11 10 11 6 0 10 -2 10 -4z m80 0 c0
-3 -4 -8 -10 -11 -5 -3 -10 -1 -10 4 0 6 5 11 10 11 6 0 10 -2 10 -4z m240 0
c0 -3 -4 -8 -10 -11 -5 -3 -10 -1 -10 4 0 6 5 11 10 11 6 0 10 -2 10 -4z m240
0 c0 -3 -4 -8 -10 -11 -5 -3 -10 -1 -10 4 0 6 5 11 10 11 6 0 10 -2 10 -4z
m240 0 c0 -3 -4 -8 -10 -11 -5 -3 -10 -1 -10 4 0 6 5 11 10 11 6 0 10 -2 10
-4z m400 0 c0 -3 -4 -8 -10 -11 -5 -3 -10 -1 -10 4 0 6 5 11 10 11 6 0 10 -2
10 -4z m240 0 c0 -3 -4 -8 -10 -11 -5 -3 -10 -1 -10 4 0 6 5 11 10 11 6 0 10
-2 10 -4z m-869 -599 c-6 -8 -8 -17 -4 -20 3 -4 12 1 20 11 8 9 12 12 9 5 -4
-6 -2 -14 4 -18 5 -3 10 2 10 12 1 17 1 17 11 0 8 -13 15 -15 28 -8 12 7 22 6
31 -2 10 -9 11 -9 6 1 -9 15 6 16 21 1 8 -8 13 -7 18 2 6 8 4 10 -5 4 -9 -6
-11 -4 -5 5 6 10 11 9 21 -4 9 -13 13 -14 17 -4 4 10 8 10 16 -2 9 -13 11 -13
11 0 0 11 3 11 12 2 8 -8 15 -9 25 -1 10 9 13 8 13 -2 0 -11 3 -11 11 1 8 11
12 12 16 2 3 -9 9 -7 21 6 10 10 14 13 10 7 -13 -20 4 -26 19 -7 8 9 12 12 9
5 -4 -6 -2 -14 4 -18 5 -3 10 2 10 12 1 17 1 17 11 0 8 -13 15 -15 28 -8 12 7
22 6 31 -2 10 -9 11 -9 6 1 -9 15 6 16 21 1 8 -8 13 -7 18 2 6 8 4 10 -5 4 -9
-6 -11 -4 -5 5 6 10 11 9 21 -4 9 -13 13 -14 17 -4 4 10 8 10 16 -2 9 -13 11
-13 11 0 0 11 3 11 12 2 8 -8 15 -9 25 -1 10 9 13 8 13 -2 0 -11 3 -11 11 1 8
11 12 12 16 2 3 -9 9 -7 21 6 10 10 14 13 10 7 -13 -20 4 -26 19 -7 8 9 12 12
9 5 -4 -6 -2 -14 4 -18 5 -3 10 2 10 12 1 17 1 17 11 0 8 -13 15 -15 28 -8 12
7 22 6 31 -2 10 -9 11 -9 6 1 -9 15 6 16 21 1 8 -8 13 -7 18 2 6 8 4 10 -5 4
-9 -6 -11 -4 -5 5 6 10 11 9 21 -4 9 -13 13 -14 17 -4 4 10 8 10 16 -2 9 -13
11 -13 11 -1 0 12 3 12 12 3 8 -8 15 -9 25 -1 10 9 13 8 13 -2 0 -11 3 -11 11
1 8 11 12 12 16 2 3 -9 9 -7 21 6 10 10 14 13 10 7 -13 -20 4 -26 19 -7 8 9
12 12 9 5 -4 -6 -2 -14 4 -18 5 -3 10 2 10 11 0 17 1 16 13 -1 10 -13 16 -15
21 -6 6 9 11 9 24 -1 12 -10 14 -10 8 0 -4 7 -1 12 8 12 9 0 16 -5 16 -11 0
-5 5 -7 10 -4 6 4 8 12 4 18 -3 7 1 4 9 -5 8 -10 18 -14 22 -10 5 4 5 1 1 -6
-4 -7 -13 -9 -19 -5 -7 4 -5 -2 3 -12 11 -14 12 -19 2 -22 -6 -3 -9 -9 -6 -14
3 -6 12 -5 21 3 10 8 7 -1 -6 -26 -12 -20 -16 -34 -10 -30 9 5 10 2 6 -9 -20
-49 -20 -53 -3 -32 16 19 16 19 7 -6 -5 -15 -5 -32 0 -41 6 -11 4 -21 -6 -31
-11 -12 -12 -16 -2 -20 9 -3 9 -8 -2 -20 -16 -20 -1 -23 19 -4 7 6 5 0 -6 -14
-11 -15 -25 -24 -33 -21 -10 4 -12 1 -6 -9 5 -8 0 -6 -12 4 -15 13 -23 15 -28
7 -4 -6 -13 -9 -20 -6 -7 2 -18 -1 -24 -7 -9 -9 -11 -8 -6 4 4 10 0 16 -9 16
-8 0 -13 -4 -11 -8 3 -4 -2 -9 -10 -13 -8 -3 -17 -1 -21 5 -4 6 -11 6 -20 -2
-12 -9 -13 -9 -9 3 4 9 0 15 -9 15 -8 0 -13 -4 -10 -9 3 -4 3 -8 0 -8 -2 0
-13 -3 -23 -6 -13 -4 -14 -3 -5 4 11 7 9 10 -7 15 -12 3 -19 1 -15 -4 3 -5 1
-9 -5 -9 -5 0 -12 4 -16 10 -3 5 -12 7 -20 4 -8 -4 -12 -10 -9 -15 3 -5 -2 -6
-10 -3 -9 3 -14 10 -11 14 7 11 -22 6 -32 -5 -4 -4 -2 -5 6 0 10 6 12 4 6 -5
-6 -10 -11 -9 -22 5 -8 12 -13 14 -13 6 0 -11 -3 -11 -14 -2 -11 10 -17 8 -25
-6 -10 -17 -10 -17 -11 2 0 17 -2 17 -10 5 -9 -13 -11 -13 -20 0 -8 13 -10 12
-10 -3 0 -10 -5 -15 -10 -12 -6 4 -8 11 -5 16 4 5 1 9 -4 9 -6 0 -11 -5 -11
-11 0 -8 -4 -8 -14 0 -10 9 -16 9 -21 1 -4 -6 -13 -9 -20 -6 -7 2 -18 -1 -24
-7 -9 -9 -11 -8 -6 4 4 10 0 16 -9 16 -8 0 -13 -4 -11 -8 3 -4 -2 -9 -10 -13
-8 -3 -17 -1 -21 5 -4 6 -11 6 -20 -2 -12 -9 -13 -9 -9 3 4 9 0 15 -9 15 -8 0
-13 -4 -11 -8 3 -4 -2 -9 -10 -13 -8 -3 -17 -1 -21 5 -4 6 -11 6 -20 -2 -12
-9 -13 -9 -9 3 4 9 0 15 -9 15 -8 0 -13 -4 -11 -8 3 -4 -2 -9 -10 -13 -8 -3
-17 -1 -21 5 -4 6 -11 6 -20 -2 -12 -9 -13 -9 -9 3 4 9 0 15 -9 15 -8 0 -13
-4 -10 -9 3 -4 3 -8 0 -8 -2 0 -13 -3 -23 -6 -13 -4 -14 -3 -5 4 11 7 9 10 -7
15 -12 3 -19 1 -15 -4 3 -5 1 -9 -5 -9 -5 0 -12 4 -16 10 -3 5 -12 7 -20 4 -8
-4 -12 -10 -9 -15 3 -5 -2 -6 -10 -3 -9 3 -14 10 -11 14 7 11 -22 6 -32 -5 -4
-4 -2 -5 6 0 10 6 12 4 6 -5 -6 -10 -11 -9 -22 5 -8 12 -13 14 -13 6 0 -11 -3
-11 -14 -2 -11 10 -17 8 -25 -6 -10 -17 -10 -17 -11 2 0 17 -2 17 -10 5 -9
-13 -11 -13 -20 0 -8 13 -10 12 -10 -3 0 -10 -5 -15 -10 -12 -6 4 -8 11 -5 16
4 5 1 9 -4 9 -6 0 -11 -5 -11 -11 0 -8 -4 -8 -14 0 -10 9 -16 9 -21 1 -4 -6
-13 -9 -20 -6 -7 2 -18 -1 -24 -7 -9 -9 -11 -8 -6 4 4 10 0 16 -9 16 -8 0 -13
-4 -11 -8 3 -4 -2 -9 -10 -13 -8 -3 -17 -1 -21 5 -4 6 -11 6 -20 -2 -12 -9
-13 -9 -9 3 4 9 0 15 -9 15 -8 0 -13 -4 -11 -8 7 -11 -26 -20 -39 -11 -17 13
-56 12 -56 -1 0 -7 -5 -4 -11 6 -10 17 -12 17 -29 2 -16 -15 -19 -15 -34 0 -9
9 -16 12 -16 6 0 -6 -7 -8 -15 -5 -9 4 -15 0 -15 -7 0 -11 -2 -11 -10 1 -5 8
-12 11 -16 8 -4 -4 -15 -3 -25 2 -12 7 -20 6 -25 -1 -4 -8 -9 -7 -15 2 -7 11
-9 9 -9 -6 -1 -20 -1 -20 -15 -1 -10 13 -15 15 -15 6 0 -7 -3 -10 -7 -7 -3 4
-12 2 -20 -5 -10 -8 -12 -8 -8 4 4 9 0 15 -9 15 -8 0 -13 -4 -11 -8 3 -4 -2
-9 -10 -13 -8 -3 -17 -1 -21 5 -4 6 -11 6 -20 -2 -12 -9 -13 -9 -9 3 4 9 0 15
-9 15 -8 0 -13 -4 -10 -9 3 -4 3 -8 0 -8 -2 0 -13 -3 -23 -6 -13 -4 -14 -3 -5
4 11 7 9 10 -7 15 -12 3 -19 1 -15 -4 3 -5 1 -9 -5 -9 -5 0 -12 4 -16 10 -3 5
-12 7 -20 4 -8 -4 -12 -10 -9 -15 3 -5 -2 -6 -10 -3 -9 3 -14 10 -11 14 7 11
-22 6 -32 -5 -4 -4 -2 -5 6 0 10 6 12 4 6 -5 -6 -10 -11 -9 -22 5 -8 12 -13
14 -13 6 0 -11 -3 -11 -14 -2 -11 10 -17 8 -25 -6 -10 -17 -10 -17 -11 2 0 17
-2 17 -10 5 -9 -13 -11 -13 -20 0 -8 13 -10 12 -10 -3 0 -10 -5 -15 -10 -12
-6 4 -8 11 -5 16 4 5 1 9 -4 9 -6 0 -11 -5 -11 -11 0 -8 -4 -8 -14 0 -10 9
-16 9 -21 1 -4 -6 -13 -9 -20 -6 -7 2 -18 -1 -24 -7 -9 -9 -11 -8 -6 4 4 10 0
16 -9 16 -8 0 -13 -4 -11 -8 3 -4 -2 -9 -10 -13 -8 -3 -17 -1 -21 5 -4 6 -11
6 -20 -2 -12 -9 -13 -9 -9 3 4 9 0 15 -9 15 -8 0 -13 -4 -11 -8 7 -11 -26 -20
-39 -11 -17 13 -56 12 -56 -1 0 -7 -5 -4 -11 6 -10 17 -12 17 -29 2 -16 -15
-19 -15 -34 0 -9 9 -16 12 -16 5 0 -6 -5 -8 -10 -5 -6 4 -18 1 -27 -7 -14 -11
-16 -11 -8 1 6 11 4 13 -8 8 -9 -3 -19 -1 -23 4 -4 7 -10 7 -17 0 -15 -15 -30
-14 -21 2 5 8 2 8 -9 -2 -9 -7 -17 -10 -17 -6 0 4 -6 2 -14 -4 -11 -9 -15 -9
-18 1 -4 10 -9 10 -23 -2 -10 -8 -16 -10 -12 -4 4 7 0 15 -9 18 -8 3 -13 2
-10 -3 3 -5 -1 -12 -10 -15 -12 -5 -15 -2 -10 11 6 14 4 15 -5 6 -6 -6 -18 -9
-27 -6 -11 5 -13 3 -7 -8 7 -12 6 -12 -7 -1 -10 8 -18 9 -22 3 -9 -14 -37 -2
-30 13 3 6 -2 2 -10 -8 -9 -11 -16 -14 -16 -7 0 7 -4 10 -9 6 -5 -3 -12 -1
-16 5 -4 6 -12 7 -18 3 -7 -4 -25 -8 -42 -8 -16 0 -36 -4 -44 -9 -9 -6 -12 -5
-8 1 4 6 -2 13 -13 16 -11 3 -19 2 -18 -2 2 -18 -3 -24 -11 -12 -8 13 -12 13
-27 0 -10 -8 -15 -9 -11 -3 4 7 -2 14 -13 17 -11 3 -18 1 -15 -3 3 -5 1 -11
-5 -15 -5 -3 -10 0 -10 7 0 9 -3 9 -10 -2 -9 -14 -15 -6 -10 15 1 5 -8 1 -19
-9 -23 -21 -29 -9 -8 14 7 9 4 8 -8 -1 -11 -9 -26 -14 -34 -11 -9 3 -11 0 -6
-9 6 -11 5 -12 -5 -2 -11 10 -17 10 -29 0 -12 -10 -13 -9 -6 2 6 11 4 13 -8 8
-9 -3 -19 -1 -23 4 -4 7 -10 7 -16 1 -6 -6 -17 -8 -26 -5 -11 5 -13 2 -7 -8 6
-11 5 -12 -5 -2 -11 10 -17 10 -29 0 -12 -10 -13 -9 -6 2 6 11 4 13 -7 9 -8
-4 -21 -2 -29 2 -8 5 -19 4 -26 -2 -7 -6 -13 -7 -13 -3 0 4 -8 1 -17 -6 -9 -8
-14 -9 -10 -3 4 7 -2 14 -13 17 -11 3 -19 2 -18 -2 2 -18 -3 -24 -11 -12 -8
13 -12 13 -27 0 -10 -8 -15 -9 -11 -3 4 7 -2 14 -13 17 -11 3 -18 1 -15 -3 3
-5 1 -11 -5 -15 -5 -3 -10 0 -10 7 0 9 -3 9 -10 -2 -6 -10 -10 -11 -10 -3 0 8
-11 11 -28 9 -21 -2 -31 3 -39 21 -12 25 -5 30 17 11 8 -8 7 -4 -3 11 -8 13
-13 30 -10 39 5 11 3 13 -8 7 -8 -5 -5 2 6 15 11 13 15 20 8 17 -6 -4 -14 -3
-18 3 -3 5 2 10 12 11 10 0 13 3 6 5 -6 3 -9 16 -7 30 3 19 1 24 -8 18 -10 -5
-10 -4 -1 6 9 9 9 17 3 25 -11 14 -3 48 10 40 4 -3 6 12 3 32 -5 33 -3 36 11
24 13 -11 17 -11 22 3 6 15 8 15 21 -1 8 -10 12 -12 8 -5 -3 6 -1 12 4 12 6 0
11 -6 12 -12 0 -10 2 -10 6 0 6 15 33 16 33 1 0 -5 5 -7 10 -4 6 4 8 11 5 16
-9 14 2 11 19 -7 9 -8 16 -11 16 -5 0 6 7 11 15 11 8 0 15 -5 15 -11 0 -5 5
-7 10 -4 6 4 7 12 3 18 -4 7 5 4 19 -5 19 -13 29 -15 34 -6 5 7 3 8 -6 3 -9
-6 -11 -4 -6 4 6 9 13 8 29 -6 11 -10 17 -12 13 -5 -9 15 10 16 20 1 4 -8 9
-8 17 0 15 15 30 14 21 -1 -4 -7 1 -5 12 4 17 17 19 17 38 0 11 -9 16 -11 12
-4 -9 15 10 16 20 1 4 -8 9 -8 17 0 15 15 30 14 21 -1 -4 -7 3 -4 15 6 22 20
22 20 15 0 -6 -16 -5 -17 7 -6 7 6 17 12 22 12 4 0 5 -6 1 -12 -5 -9 -2 -9 9
1 14 11 17 11 18 0 0 -10 2 -11 6 -1 6 15 33 16 33 1 0 -5 5 -7 10 -4 6 4 8
11 5 16 -9 14 2 11 19 -7 9 -8 16 -11 16 -5 0 6 7 11 15 11 8 0 15 -5 15 -11
0 -5 5 -7 10 -4 6 4 7 12 3 18 -4 7 5 4 19 -5 19 -13 29 -15 34 -6 5 7 3 8 -6
3 -9 -6 -11 -4 -6 4 6 9 13 8 29 -6 11 -10 17 -13 14 -6 -5 8 0 11 13 10 11
-1 20 -6 20 -12 0 -5 5 -3 11 5 8 12 12 12 16 2 4 -10 8 -9 17 4 10 13 15 14
21 4 6 -9 4 -11 -5 -5 -9 6 -11 4 -5 -4 5 -9 10 -10 18 -2 15 15 30 14 21 -1
-5 -10 -4 -10 6 -1 11 10 17 10 29 0 12 -9 13 -9 7 1 -9 15 6 16 21 1 8 -8 13
-7 18 2 6 8 4 10 -5 4 -9 -6 -11 -4 -5 5 6 10 11 9 22 -5 7 -11 13 -14 13 -8
0 12 18 12 37 0 6 -4 15 -2 19 4 5 8 3 9 -6 4 -9 -6 -11 -4 -6 4 6 9 13 8 29
-6 11 -10 17 -13 14 -6 -5 8 0 11 13 10 11 -1 20 -6 20 -12 0 -5 5 -3 11 5 8
12 12 12 16 2 4 -10 8 -9 17 4 10 13 15 14 21 4 6 -9 4 -11 -5 -5 -9 6 -11 4
-5 -4 5 -9 10 -10 18 -2 15 15 30 14 21 -1 -5 -10 -4 -10 6 -1 11 10 17 10 29
0 12 -9 13 -9 7 1 -9 15 6 16 21 1 8 -8 13 -7 18 2 6 8 4 10 -5 4 -9 -6 -11
-4 -5 5 6 10 11 9 22 -5 7 -11 13 -13 13 -7 0 14 21 12 32 -3 5 -6 8 -5 8 3 0
6 7 12 15 12 8 0 15 -5 15 -11 0 -5 5 -7 10 -4 6 4 8 11 5 16 -9 14 2 11 19
-7 9 -8 16 -11 16 -5 0 6 7 11 15 11 8 0 15 -5 15 -11 0 -5 5 -7 10 -4 6 4 7
12 3 18 -4 7 5 4 19 -5 19 -13 29 -15 34 -6 5 7 3 8 -6 3 -9 -6 -11 -4 -6 4 6
9 13 8 29 -6 11 -10 17 -12 13 -5 -9 15 10 16 20 1 4 -8 9 -8 17 0 15 15 30
14 21 -1 -4 -7 1 -5 12 4 17 17 19 17 38 0 11 -9 16 -11 12 -4 -9 15 10 16 20
1 4 -8 9 -8 17 0 15 15 30 14 21 -1 -4 -7 3 -4 15 6 22 20 22 20 15 0 -6 -16
-5 -17 7 -6 7 6 17 12 22 12 4 0 5 -6 1 -12 -5 -9 -2 -9 9 1 14 11 17 11 18 0
0 -10 2 -11 6 -1 6 15 33 16 33 1 0 -5 5 -7 10 -4 6 4 8 11 5 16 -9 14 2 11
19 -7 9 -8 16 -11 16 -5 0 6 7 11 15 11 8 0 15 -5 15 -11 0 -5 5 -7 10 -4 6 4
7 12 3 18 -4 7 5 4 19 -5 19 -13 29 -15 34 -6 5 7 3 8 -6 3 -9 -6 -11 -4 -6 4
6 9 13 8 29 -6 11 -10 17 -13 14 -6 -5 8 0 11 13 10 11 -1 20 -6 20 -12 0 -5
5 -3 11 5 8 12 12 12 16 2 4 -10 8 -9 17 4 10 13 15 14 21 4 6 -9 4 -11 -5 -5
-9 6 -11 4 -5 -4 5 -9 10 -10 18 -2 15 15 30 14 21 -1 -5 -10 -4 -10 6 -1 11
10 17 10 29 0 12 -9 13 -9 7 1 -9 15 6 16 21 1 8 -8 13 -7 18 2 6 8 4 10 -5 4
-9 -6 -11 -4 -5 5 6 10 11 9 22 -5 7 -11 13 -14 13 -9 0 12 29 12 49 -1 10 -5
12 -4 7 3 -9 15 6 16 21 1 8 -8 13 -7 18 2 6 8 4 10 -5 4 -9 -6 -11 -4 -5 5 6
10 11 9 21 -4 9 -13 13 -14 17 -4 4 10 8 10 16 -2 9 -13 11 -13 11 0 0 11 3
11 12 2 8 -8 15 -9 25 -1 10 9 13 8 13 -2 0 -11 3 -11 11 1 8 12 12 12 16 2 4
-10 9 -8 20 7 8 12 17 21 20 21 3 0 0 -6 -6 -13z m2193 -463 c3 -8 2 -12 -4
-9 -6 3 -10 10 -10 16 0 14 7 11 14 -7z m-4701 -117 c17 10 87 11 80 0 -7 -12
30 -4 39 8 5 6 8 5 8 -3 0 -8 5 -10 13 -5 19 11 67 10 59 -2 -3 -5 2 -4 11 4
13 10 17 10 17 1 0 -10 3 -10 15 0 12 10 15 10 15 0 0 -10 3 -10 14 -1 10 8
16 9 21 1 3 -5 11 -10 16 -10 6 0 8 4 5 8 -3 5 1 9 9 9 8 0 15 -5 15 -10 0 -5
8 -3 17 4 15 12 16 12 8 -1 -8 -13 -7 -13 8 -1 13 10 17 10 17 1 0 -10 3 -10
15 0 12 10 15 10 15 0 0 -10 3 -10 14 -1 10 8 16 9 21 1 3 -5 11 -10 16 -10 6
0 7 5 4 10 -8 13 17 8 28 -5 4 -6 11 -4 17 5 7 11 10 11 10 2 0 -8 5 -10 13
-5 16 10 67 11 61 1 -3 -4 0 -8 5 -8 6 0 11 5 11 11 0 8 5 8 15 -1 12 -10 15
-10 16 1 0 10 2 11 6 2 2 -7 13 -13 24 -13 24 0 24 -11 -1 -38 -13 -13 -16
-22 -8 -22 9 0 9 -3 0 -12 -16 -16 -15 -31 1 -22 9 6 9 4 1 -7 -16 -20 -24
-59 -12 -59 5 0 2 -7 -6 -16 -19 -18 -21 -31 -3 -16 9 8 12 0 12 -33 0 -24 -3
-41 -7 -38 -9 5 -11 -11 -2 -20 9 -9 10 -106 2 -100 -9 5 -11 -11 -2 -20 9 -9
10 -106 2 -100 -9 5 -11 -11 -2 -20 9 -9 10 -106 2 -100 -9 5 -11 -11 -2 -20
9 -9 10 -106 2 -100 -10 5 -11 -11 -1 -20 3 -4 7 -23 8 -42 1 -28 -2 -34 -14
-30 -10 4 -9 -1 5 -16 10 -12 13 -19 7 -15 -8 4 -13 1 -13 -9 0 -9 3 -14 8
-12 9 6 8 -50 -1 -60 -9 -9 -9 -25 1 -20 9 6 8 -50 -1 -60 -10 -9 -9 -25 1
-19 11 7 8 -31 -3 -41 -4 -5 -5 -2 0 6 6 10 4 12 -4 7 -9 -6 -9 -11 1 -24 10
-12 10 -14 1 -8 -8 4 -13 2 -13 -6 0 -9 -3 -9 -10 2 -9 13 -10 13 -10 0 0 -12
-2 -12 -9 -2 -4 8 -12 14 -16 14 -4 0 -12 -6 -16 -14 -7 -10 -9 -10 -9 0 0 8
-5 10 -12 5 -20 -12 -39 -12 -32 -1 4 6 -2 5 -15 -1 -16 -9 -21 -9 -21 0 0 8
-5 7 -17 -2 -15 -12 -16 -12 -8 1 8 13 7 13 -8 1 -13 -10 -17 -10 -17 -1 0 9
-4 9 -17 -1 -15 -12 -16 -12 -8 1 8 13 7 13 -8 1 -14 -11 -17 -11 -17 0 0 11
-2 11 -10 -1 -7 -11 -10 -11 -10 -2 0 10 -5 10 -20 2 -15 -8 -20 -8 -20 1 0 8
-5 7 -17 -2 -15 -12 -16 -12 -8 1 8 13 7 13 -8 1 -13 -10 -17 -10 -17 -1 0 9
-4 9 -17 -1 -15 -12 -16 -12 -8 1 8 13 7 13 -8 1 -14 -11 -17 -11 -17 0 0 11
-2 11 -10 -1 -7 -11 -10 -11 -10 -2 0 9 -5 10 -18 3 -13 -7 -23 -6 -30 1 -9 9
-12 8 -12 -2 0 -13 -2 -13 -10 0 -8 13 -10 13 -10 1 0 -11 -4 -10 -16 5 -8 10
-13 13 -9 7 7 -15 -11 -18 -20 -3 -4 6 -11 8 -16 5 -5 -4 -9 -2 -9 3 0 6 -7
13 -16 16 -15 6 -15 4 -3 -11 13 -16 12 -17 -4 -4 -10 8 -16 20 -13 27 3 8 0
11 -8 8 -15 -6 -32 13 -38 41 -2 11 -9 19 -14 18 -6 -1 -11 4 -11 12 0 8 4 12
8 9 4 -2 10 0 14 6 3 5 -1 10 -10 10 -12 0 -13 4 -6 18 5 10 6 24 1 32 -4 7
-6 24 -4 37 3 18 1 23 -8 17 -7 -4 -4 3 7 16 11 13 14 20 8 16 -7 -4 -13 -2
-13 3 0 6 6 11 13 12 6 0 3 4 -8 9 -11 5 -14 9 -6 9 11 1 11 4 0 18 -8 10 -9
14 -2 10 14 -9 14 34 1 44 -11 7 1 41 13 34 4 -3 6 5 3 17 -3 13 -6 31 -6 41
1 11 -4 15 -11 10 -7 -3 -3 4 8 17 11 13 15 20 8 17 -6 -4 -14 -3 -18 3 -3 5
2 10 12 11 10 0 13 3 6 5 -6 3 -9 16 -7 30 3 19 1 24 -8 18 -10 -5 -10 -4 -1
6 9 9 9 17 3 25 -12 14 -2 48 11 40 4 -3 6 5 3 17 -3 13 -6 31 -6 41 1 11 -4
15 -11 10 -7 -3 -3 4 8 17 11 13 14 20 8 16 -7 -4 -13 -2 -13 3 0 6 6 11 13
12 6 0 3 4 -8 9 -11 5 -14 9 -6 9 11 1 11 4 0 18 -8 9 -9 14 -3 10 7 -4 12 2
12 18 0 14 -4 25 -8 25 -5 0 -6 9 -3 20 3 11 9 17 14 14 14 -8 10 3 -7 20 -8
9 -11 16 -6 16 6 0 13 7 16 16 3 8 2 12 -4 9 -6 -3 -10 -2 -10 4 0 5 6 12 13
14 7 3 5 6 -5 6 -11 1 -15 6 -12 16 4 8 9 13 14 10 4 -2 5 7 2 20 -2 15 -9 22
-16 18 -6 -4 -5 0 2 9 8 10 9 18 3 22 -15 10 -2 36 15 29 8 -3 14 1 15 8 0 11
2 11 6 1 2 -6 10 -9 16 -5z m1075 -3 c6 -1 12 2 12 8 0 6 6 5 15 -2 12 -10 15
-10 15 1 0 12 2 12 9 1 4 -8 12 -14 16 -14 4 0 12 6 16 14 7 10 9 10 9 0 0 -8
5 -10 13 -5 16 10 67 11 61 1 -3 -4 0 -8 5 -8 6 0 11 5 11 11 0 8 5 8 15 -1
12 -10 15 -10 16 1 0 10 2 11 6 2 2 -7 9 -13 14 -13 6 0 8 3 6 8 -3 4 8 7 23
7 16 1 26 -3 23 -8 -7 -12 30 -4 39 8 5 6 8 5 8 -3 0 -8 5 -10 13 -5 19 11 67
10 59 -2 -3 -5 2 -4 11 4 13 10 17 10 17 1 0 -10 3 -10 15 0 12 10 15 10 15 0
0 -10 3 -10 14 -1 10 8 16 9 21 1 3 -5 11 -10 16 -10 6 0 8 4 5 8 -3 5 1 9 9
9 8 0 15 -5 15 -10 0 -5 8 -3 17 4 15 12 16 12 8 -1 -8 -13 -7 -13 8 -1 13 10
17 10 17 1 0 -10 3 -10 15 0 12 10 15 10 15 0 0 -10 3 -10 14 -1 10 8 16 9 21
1 3 -5 11 -10 16 -10 6 0 7 5 4 10 -8 13 17 8 28 -5 4 -6 11 -4 17 5 7 11 10
11 10 2 0 -8 5 -10 13 -5 16 10 67 11 61 1 -3 -4 0 -8 5 -8 6 0 11 5 11 11 0
8 5 8 15 -1 12 -10 15 -10 16 1 0 10 2 11 6 2 2 -7 9 -13 14 -13 6 0 8 3 6 8
-3 4 8 7 23 7 16 1 26 -3 23 -8 -7 -12 30 -4 39 8 5 6 8 5 8 -3 0 -8 5 -10 13
-5 19 11 67 10 59 -2 -3 -5 2 -4 11 4 13 10 17 10 17 1 0 -10 3 -10 15 0 12
10 15 10 15 0 0 -10 3 -10 14 -1 10 8 16 9 21 1 3 -5 11 -10 16 -10 6 0 7 5 4
10 -8 13 17 8 28 -5 4 -6 11 -4 17 5 7 11 10 11 10 2 0 -8 5 -10 13 -5 16 10
67 11 61 1 -3 -4 0 -8 5 -8 6 0 11 5 11 11 0 8 5 8 15 -1 12 -10 15 -10 16 1
0 10 2 11 6 2 2 -7 9 -13 14 -13 6 0 8 3 6 8 -3 4 8 7 23 7 16 1 26 -3 23 -8
-7 -12 30 -4 39 8 5 6 8 5 8 -3 0 -8 5 -10 13 -5 19 11 67 10 59 -2 -3 -5 2
-4 11 4 13 10 17 10 17 1 0 -10 3 -10 15 0 12 10 15 10 15 0 0 -10 3 -10 14
-1 10 8 16 9 21 1 3 -5 11 -10 16 -10 6 0 7 5 4 10 -8 13 17 8 28 -5 4 -6 11
-4 17 5 7 11 10 11 10 2 0 -8 5 -10 13 -5 16 10 67 11 61 1 -3 -4 0 -8 5 -8 6
0 11 5 11 11 0 8 5 8 15 -1 12 -10 15 -10 16 1 0 10 2 11 6 2 2 -7 9 -13 14
-13 6 0 8 3 6 8 -3 4 8 7 23 7 16 1 26 -3 23 -8 -7 -12 30 -4 39 8 5 6 8 5 8
-3 0 -8 5 -10 13 -5 19 11 67 10 59 -2 -3 -5 2 -4 11 4 13 10 17 10 17 1 0
-10 3 -10 15 0 12 10 15 10 15 0 0 -10 3 -10 14 -1 10 8 16 9 21 1 3 -5 11
-10 16 -10 6 0 7 5 4 10 -8 13 17 8 28 -5 4 -6 11 -4 17 5 7 11 10 11 10 2 0
-8 5 -10 13 -5 16 10 67 11 61 1 -3 -4 0 -8 5 -8 6 0 11 5 11 11 0 8 5 8 15
-1 12 -10 15 -10 16 1 0 10 2 11 6 2 2 -7 9 -13 14 -13 6 0 8 3 6 8 -3 4 8 7
23 7 16 1 26 -3 23 -8 -7 -12 30 -4 39 8 5 6 8 5 8 -3 0 -8 5 -10 12 -6 18 11
98 11 105 1 3 -5 9 -3 14 4 7 12 9 12 9 0 0 -11 3 -11 15 -1 8 7 15 8 15 3 0
-5 9 -9 20 -10 11 -1 18 1 16 5 -6 10 36 8 52 -2 7 -4 12 -2 13 6 0 10 2 11 6
0 4 -10 8 -10 21 0 13 11 14 11 7 -2 -8 -13 -7 -13 8 -1 14 11 17 11 17 0 0
-9 3 -10 8 -4 10 14 32 17 32 5 0 -5 5 -10 11 -10 5 0 8 4 5 8 -6 10 51 9 60
-1 11 -11 26 -8 19 3 -8 13 18 8 27 -5 5 -6 8 -6 8 1 0 6 7 11 15 11 8 0 15
-4 15 -9 0 -4 5 -8 11 -8 5 0 8 4 5 8 -6 10 51 9 60 -1 10 -10 26 -9 20 1 -3
5 1 9 9 9 8 0 15 -5 15 -11 0 -6 4 -5 9 2 4 8 12 14 16 14 4 0 12 -6 16 -14 7
-11 11 -10 19 2 7 11 10 11 10 2 0 -8 5 -10 13 -5 19 12 38 12 31 1 -4 -6 2
-5 15 1 15 8 21 9 21 1 0 -6 5 -8 13 -3 17 11 38 13 32 3 -6 -10 15 -8 33 3 7
5 12 3 12 -4 0 -8 5 -7 17 2 11 9 14 10 9 2 -5 -9 1 -12 23 -9 17 2 31 -1 31
-6 0 -5 4 -7 9 -4 5 4 11 2 13 -3 1 -5 10 -11 18 -13 21 -4 40 -24 40 -42 0
-9 5 -16 11 -16 5 0 7 5 3 12 -4 7 -3 8 4 4 6 -4 8 -14 5 -23 -5 -12 -3 -14 7
-8 10 6 11 4 4 -6 -11 -19 -14 -40 -4 -34 4 3 14 -3 21 -12 10 -12 10 -14 2
-9 -8 4 -13 2 -13 -8 0 -8 5 -18 10 -21 8 -5 8 -11 0 -20 -7 -9 -8 -15 -1 -19
6 -4 8 -13 5 -21 -4 -8 -10 -13 -15 -10 -4 3 -6 -5 -3 -17 3 -13 6 -31 6 -41
-1 -11 4 -15 11 -10 7 3 3 -4 -8 -17 -11 -13 -15 -20 -8 -17 6 4 14 3 18 -3 3
-5 -2 -10 -12 -11 -10 0 -13 -3 -6 -5 6 -3 9 -16 7 -30 -3 -19 -1 -24 8 -18
10 5 10 4 1 -6 -9 -9 -9 -17 -3 -25 12 -14 2 -48 -11 -40 -11 7 -2 -36 10 -48
11 -11 3 -39 -10 -32 -4 3 -6 -5 -3 -17 3 -13 6 -31 6 -41 -1 -11 4 -15 11
-10 7 3 3 -4 -8 -17 -11 -13 -15 -20 -8 -17 6 4 14 3 18 -3 3 -5 -2 -10 -12
-11 -10 0 -13 -3 -6 -5 6 -3 9 -16 7 -30 -3 -19 -1 -24 8 -18 10 5 10 4 1 -6
-9 -9 -9 -17 -3 -25 12 -14 2 -48 -11 -40 -12 8 -2 -34 13 -53 11 -13 11 -14
-1 -7 -11 6 -13 4 -8 -8 3 -9 2 -19 -3 -22 -6 -4 -7 -13 -1 -23 4 -9 6 -23 3
-31 -3 -9 0 -11 9 -6 8 5 5 -2 -6 -15 -11 -13 -15 -20 -8 -17 6 4 14 3 18 -3
3 -5 -2 -10 -12 -11 -10 0 -13 -3 -6 -5 6 -3 9 -16 7 -30 -3 -19 -1 -24 8 -18
10 5 10 4 1 -6 -9 -9 -9 -17 -3 -25 12 -14 2 -48 -11 -40 -11 7 -2 -36 10 -48
11 -11 3 -39 -10 -32 -4 3 -6 -5 -3 -17 3 -13 6 -31 6 -41 -1 -11 4 -15 11
-10 7 3 3 -4 -8 -17 -11 -13 -15 -20 -8 -17 6 4 14 3 18 -3 3 -5 -2 -10 -12
-11 -10 0 -13 -3 -6 -5 6 -3 9 -16 7 -30 -3 -19 -1 -24 8 -18 10 5 10 4 1 -6
-9 -9 -9 -17 -3 -25 12 -14 2 -48 -11 -40 -12 8 -2 -34 13 -53 11 -13 11 -14
-1 -7 -11 6 -13 4 -8 -8 3 -9 2 -19 -3 -22 -6 -4 -7 -13 -1 -23 4 -9 6 -23 3
-31 -3 -9 0 -11 9 -6 8 5 5 -2 -6 -15 -11 -13 -15 -20 -8 -17 6 4 14 3 18 -3
3 -5 -2 -10 -12 -11 -10 0 -13 -3 -6 -5 6 -3 9 -16 7 -30 -3 -19 -1 -24 8 -18
10 5 10 4 1 -6 -9 -9 -9 -17 -3 -25 12 -14 2 -48 -11 -40 -11 7 -2 -36 10 -48
11 -11 3 -39 -10 -32 -4 3 -6 -5 -3 -17 3 -13 6 -31 6 -41 -1 -11 4 -15 11
-10 7 3 3 -4 -8 -17 -11 -13 -15 -20 -8 -17 6 4 14 3 18 -3 3 -5 -2 -10 -12
-11 -10 0 -13 -3 -6 -5 6 -3 9 -16 7 -30 -3 -19 -1 -24 8 -18 10 5 10 4 1 -6
-10 -11 -10 -17 0 -29 9 -12 9 -13 0 -7 -7 4 -13 2 -13 -3 0 -6 5 -11 11 -11
5 0 7 -5 4 -10 -4 -6 -10 -8 -14 -5 -5 2 -6 -7 -3 -20 2 -14 -2 -33 -9 -42
-12 -14 -12 -16 0 -8 10 5 12 4 7 -3 -4 -7 -15 -12 -24 -12 -15 0 -15 -2 -2
-10 8 -5 12 -10 8 -11 -5 -1 -12 -3 -18 -4 -5 -1 -13 -3 -17 -4 -5 -1 -1 -6 7
-11 12 -8 12 -10 1 -10 -8 0 -20 -8 -28 -18 -8 -9 -12 -11 -8 -4 9 18 -2 15
-26 -9 -15 -15 -24 -18 -32 -10 -7 7 -14 5 -24 -7 -8 -9 -12 -11 -8 -4 3 6 1
12 -5 12 -6 0 -8 5 -4 12 4 7 3 8 -5 4 -6 -4 -8 -13 -4 -19 4 -7 -2 -5 -12 3
-17 14 -18 13 -12 -2 4 -12 2 -15 -8 -11 -8 3 -13 8 -10 12 2 4 -2 8 -10 8 -8
0 -12 -4 -9 -9 6 -10 -30 -11 -40 -1 -10 11 -86 12 -80 1 3 -4 -4 -8 -16 -8
-12 0 -18 5 -15 10 3 6 1 10 -4 10 -6 0 -11 -5 -11 -11 0 -6 -5 -7 -12 -2 -17
11 -68 12 -62 1 6 -10 -30 -11 -40 -1 -10 11 -86 12 -80 1 3 -4 -4 -8 -16 -8
-12 0 -18 5 -15 10 3 6 1 10 -4 10 -6 0 -11 -5 -11 -11 0 -8 -5 -7 -15 1 -12
10 -19 10 -27 2 -15 -15 -32 -16 -23 -2 3 5 1 10 -4 10 -6 0 -11 -5 -11 -11 0
-6 -5 -7 -12 -2 -17 11 -68 12 -62 1 6 -10 -30 -11 -40 -1 -10 11 -86 12 -80
1 3 -4 -4 -8 -16 -8 -12 0 -18 5 -15 10 3 6 1 10 -4 10 -6 0 -11 -5 -11 -11 0
-8 -4 -8 -14 0 -11 9 -20 10 -35 1 -16 -8 -21 -8 -22 2 0 7 -4 4 -9 -7 l-9
-20 -1 20 c-1 11 -4 14 -7 8 -2 -7 -9 -13 -14 -13 -6 0 -7 5 -3 11 5 8 1 8
-14 0 -27 -14 -35 -14 -26 2 4 6 -3 3 -15 -7 -16 -15 -20 -16 -16 -5 4 10 0
16 -9 16 -8 0 -13 -4 -10 -9 3 -4 -2 -8 -11 -8 -9 0 -13 5 -10 10 3 6 1 10 -4
10 -6 0 -11 -5 -11 -11 0 -6 -5 -7 -12 -2 -17 11 -68 12 -62 1 6 -10 -30 -11
-40 -1 -10 11 -86 12 -80 1 3 -4 -4 -8 -16 -8 -12 0 -18 5 -15 10 3 6 1 10 -4
10 -6 0 -11 -5 -11 -11 0 -8 -4 -8 -14 0 -11 9 -20 10 -35 1 -16 -8 -21 -8
-22 2 0 7 -4 4 -9 -7 l-9 -20 -1 20 c-1 11 -4 14 -7 8 -2 -7 -9 -13 -14 -13
-6 0 -7 5 -3 11 5 8 1 8 -14 0 -27 -14 -35 -14 -26 2 4 6 -3 3 -15 -7 -17 -16
-21 -17 -16 -4 7 17 -9 19 -32 5 -8 -5 -13 -3 -14 5 0 7 -4 4 -9 -7 l-9 -20
-1 20 c-1 11 -4 14 -7 8 -2 -7 -9 -13 -14 -13 -6 0 -7 5 -3 11 5 8 1 8 -14 0
-27 -14 -35 -14 -26 2 4 6 -3 3 -15 -7 -16 -15 -20 -16 -16 -5 4 10 0 16 -9
16 -8 0 -13 -4 -10 -9 3 -4 -2 -8 -11 -8 -9 0 -13 5 -10 10 3 6 1 10 -4 10 -6
0 -11 -5 -11 -11 0 -6 -5 -7 -12 -2 -17 11 -68 12 -62 1 6 -10 -30 -11 -40 -1
-10 11 -86 12 -80 1 3 -4 -4 -8 -16 -8 -12 0 -18 5 -15 10 3 6 1 10 -4 10 -6
0 -11 -5 -11 -11 0 -8 -4 -8 -14 0 -11 9 -20 10 -35 1 -16 -8 -21 -8 -22 2 0
7 -4 4 -9 -7 l-9 -20 -1 20 c-1 11 -4 14 -7 8 -2 -7 -9 -13 -14 -13 -6 0 -7 5
-3 11 5 8 1 8 -14 0 -27 -14 -35 -14 -26 2 4 6 -3 3 -15 -7 -16 -15 -20 -16
-16 -5 4 10 0 16 -9 16 -8 0 -13 -4 -10 -9 3 -4 -2 -8 -11 -8 -9 0 -13 5 -10
10 3 6 1 10 -4 10 -6 0 -11 -5 -11 -11 0 -6 -5 -7 -12 -2 -17 11 -68 12 -62 1
6 -10 -30 -11 -40 -1 -10 11 -86 12 -80 1 3 -4 -4 -8 -16 -8 -12 0 -18 5 -15
10 3 6 1 10 -4 10 -6 0 -11 -5 -11 -11 0 -8 -5 -7 -15 1 -12 10 -19 10 -27 2
-15 -15 -32 -16 -23 -2 3 6 1 10 -4 10 -6 0 -11 -5 -11 -11 0 -6 -5 -7 -12 -2
-17 11 -68 12 -62 1 6 -10 -30 -11 -40 -1 -10 11 -86 12 -80 1 3 -4 -4 -8 -16
-8 -12 0 -18 5 -15 10 3 6 1 10 -4 10 -6 0 -11 -5 -11 -11 0 -6 -5 -7 -12 -2
-17 11 -68 12 -62 1 6 -10 -30 -11 -40 -1 -10 11 -86 12 -80 1 3 -4 -2 -8 -11
-8 -9 0 -14 4 -11 8 3 5 -1 9 -9 9 -8 0 -12 -4 -9 -9 6 -10 -30 -11 -40 -1
-11 11 -86 11 -80 1 8 -13 -29 -6 -38 7 -4 6 -8 1 -9 -10 l0 -20 -9 20 c-5 11
-9 14 -9 8 -1 -7 -6 -13 -12 -13 -5 0 -7 5 -3 11 5 8 1 8 -14 0 -27 -14 -35
-14 -26 2 4 6 -3 3 -15 -7 -16 -15 -20 -16 -16 -5 4 10 0 16 -9 16 -8 0 -13
-4 -10 -9 3 -4 -2 -8 -11 -8 -9 0 -13 5 -10 10 3 6 1 10 -4 10 -6 0 -11 -5
-11 -11 0 -8 -4 -8 -15 1 -8 6 -20 8 -27 4 -17 -11 -39 -14 -34 -5 3 4 -4 12
-14 19 -12 7 -21 8 -25 2 -7 -11 -65 42 -65 59 0 6 -8 11 -17 11 -15 0 -16 2
-3 10 11 7 11 10 2 10 -7 0 -11 4 -7 9 3 5 1 13 -5 16 -8 5 -7 11 1 21 10 13
6 18 -13 15 -14 -2 -9 11 9 24 13 9 13 14 3 20 -9 5 -11 4 -6 -3 4 -7 5 -12 2
-12 -14 0 -14 20 0 34 8 9 11 16 6 16 -15 0 -23 28 -10 36 7 5 8 2 3 -6 -5 -9
-4 -11 4 -6 9 6 9 11 0 23 -10 12 -10 16 2 24 13 8 6 13 -13 10 -14 -2 -9 11
9 24 13 9 13 14 3 20 -9 6 -11 4 -5 -5 5 -8 4 -11 -3 -6 -13 8 -5 36 10 36 5
0 2 7 -6 16 -11 11 -13 21 -7 33 6 10 6 23 1 31 -5 8 -5 21 -1 29 5 9 6 22 3
30 -3 10 0 11 9 5 11 -6 10 -3 -1 11 -16 20 -15 52 3 74 9 12 9 13 0 7 -16 -9
-16 -1 -3 24 12 23 2 54 -14 43 -7 -5 -3 0 7 10 17 15 15 21 -5 18 -5 0 -8 4
-8 9 0 6 5 10 12 10 9 0 9 3 1 11 -14 14 -5 42 10 32 6 -3 3 4 -6 17 -15 22
-15 26 -1 48 10 15 11 22 3 17 -9 -6 -10 -4 -6 8 20 49 20 53 3 32 -16 -19
-16 -19 -7 6 5 14 5 32 1 39 -5 8 -5 21 -1 29 5 9 6 22 3 30 -3 10 0 11 9 5
11 -6 10 -3 -1 11 -16 20 -15 52 3 74 9 12 9 13 0 7 -16 -9 -16 -1 -3 24 12
23 2 54 -14 43 -7 -5 -3 0 7 10 17 15 15 21 -5 18 -5 0 -8 4 -8 9 0 6 5 10 12
10 9 0 9 3 1 11 -14 14 -5 42 10 32 6 -3 3 4 -6 17 -15 22 -15 26 -1 48 10 15
11 22 3 17 -9 -6 -10 -4 -6 8 20 49 20 53 3 32 -16 -19 -16 -19 -7 6 5 14 5
32 1 39 -5 8 -5 21 -1 29 5 9 6 22 3 30 -3 10 0 11 9 5 11 -6 10 -3 -1 11 -16
20 -15 52 3 74 9 12 9 13 0 7 -16 -9 -16 -1 -3 24 12 23 2 54 -14 43 -7 -5 -3
0 7 10 17 15 15 21 -5 18 -5 0 -8 3 -8 9 0 5 5 10 12 10 9 0 9 3 1 11 -14 14
-5 42 10 32 6 -3 3 4 -6 17 -15 22 -15 26 -1 48 10 15 11 22 3 17 -9 -6 -10
-4 -6 8 20 49 20 53 3 32 -16 -19 -16 -19 -7 6 5 14 5 32 1 39 -5 8 -5 21 -1
29 5 9 6 22 3 30 -3 9 0 11 9 6 8 -5 7 0 -3 11 -11 13 -14 24 -8 34 5 8 6 18
4 22 -10 15 -13 48 -4 43 5 -3 11 -1 15 5 3 5 1 10 -4 10 -6 0 -11 5 -11 11 0
5 6 7 13 3 9 -6 9 -4 -1 8 -9 11 -10 18 -2 23 6 3 8 10 6 14 -3 4 5 19 17 32
12 13 21 28 19 33 -2 5 4 3 13 -4 13 -11 14 -10 9 5 -5 12 -4 16 3 12 6 -4 13
0 17 8 3 8 17 15 31 15 17 0 24 4 19 12 -5 7 -3 8 7 2 8 -4 20 -9 27 -10z
m-177 -647 c-10 -9 -11 -8 -5 6 3 10 9 15 12 12 3 -3 0 -11 -7 -18z m0 -480
c-10 -9 -11 -8 -5 6 3 10 9 15 12 12 3 -3 0 -11 -7 -18z m-946 -185 c-3 -3
-11 0 -18 7 -9 10 -8 11 6 5 10 -3 15 -9 12 -12z m946 -295 c-10 -9 -11 -8 -5
6 3 10 9 15 12 12 3 -3 0 -11 -7 -18z m-211 -607 c0 -5 -2 -10 -4 -10 -3 0 -8
5 -11 10 -3 6 -1 10 4 10 6 0 11 -4 11 -10z m970 -70 c0 -5 -5 -10 -11 -10 -5
0 -7 5 -4 10 3 6 8 10 11 10 2 0 4 -4 4 -10z m240 0 c0 -5 -5 -10 -11 -10 -5
0 -7 5 -4 10 3 6 8 10 11 10 2 0 4 -4 4 -10z m80 0 c0 -5 -5 -10 -11 -10 -5 0
-7 5 -4 10 3 6 8 10 11 10 2 0 4 -4 4 -10z m240 0 c0 -5 -5 -10 -11 -10 -5 0
-7 5 -4 10 3 6 8 10 11 10 2 0 4 -4 4 -10z m240 0 c0 -5 -5 -10 -11 -10 -5 0
-7 5 -4 10 3 6 8 10 11 10 2 0 4 -4 4 -10z m240 0 c0 -5 -5 -10 -11 -10 -5 0
-7 5 -4 10 3 6 8 10 11 10 2 0 4 -4 4 -10z m400 0 c0 -5 -5 -10 -11 -10 -5 0
-7 5 -4 10 3 6 8 10 11 10 2 0 4 -4 4 -10z m240 0 c0 -5 -5 -10 -11 -10 -5 0
-7 5 -4 10 3 6 8 10 11 10 2 0 4 -4 4 -10z m240 0 c0 -5 -5 -10 -11 -10 -5 0
-7 5 -4 10 3 6 8 10 11 10 2 0 4 -4 4 -10z m240 0 c0 -5 -5 -10 -11 -10 -5 0
-7 5 -4 10 3 6 8 10 11 10 2 0 4 -4 4 -10z m80 0 c0 -5 -5 -10 -11 -10 -5 0
-7 5 -4 10 3 6 8 10 11 10 2 0 4 -4 4 -10z m240 0 c0 -5 -5 -10 -11 -10 -5 0
-7 5 -4 10 3 6 8 10 11 10 2 0 4 -4 4 -10z"/>
<path d="M3775 4270 c3 -5 8 -10 11 -10 2 0 4 5 4 10 0 6 -5 10 -11 10 -5 0
-7 -4 -4 -10z"/>
<path d="M310 3939 c0 -5 5 -7 10 -4 6 3 10 8 10 11 0 2 -4 4 -10 4 -5 0 -10
-5 -10 -11z"/>
<path d="M3870 3939 c0 -5 5 -7 10 -4 6 3 10 8 10 11 0 2 -4 4 -10 4 -5 0 -10
-5 -10 -11z"/>
<path d="M935 2329 c-4 -6 -5 -12 -2 -15 2 -3 7 2 10 11 7 17 1 20 -8 4z"/>
<path d="M930 2180 c0 -5 5 -10 11 -10 5 0 7 5 4 10 -3 6 -8 10 -11 10 -2 0
-4 -4 -4 -10z"/>
<path d="M930 2100 c0 -5 5 -10 11 -10 5 0 7 5 4 10 -3 6 -8 10 -11 10 -2 0
-4 -4 -4 -10z"/>
<path d="M280 2080 c0 -5 5 -10 11 -10 5 0 7 5 4 10 -3 6 -8 10 -11 10 -2 0
-4 -4 -4 -10z"/>
<path d="M1219 3023 c-13 -16 -12 -17 4 -4 9 7 17 15 17 17 0 8 -8 3 -21 -13z"/>
<path d="M2630 2570 c-8 -5 -18 -6 -23 -3 -5 3 -13 -1 -18 -8 -7 -12 -9 -12
-9 0 0 11 -3 11 -15 1 -12 -10 -15 -10 -15 1 0 12 -2 12 -9 0 -5 -8 -14 -10
-21 -6 -8 5 -11 4 -6 -3 3 -6 2 -13 -4 -17 -5 -3 -10 -2 -10 4 0 6 -7 8 -15 5
-8 -4 -12 -11 -8 -18 4 -6 1 -6 -9 2 -13 10 -17 10 -21 -2 -4 -9 -17 -13 -36
-12 -16 1 -27 -2 -25 -6 3 -5 0 -15 -6 -24 -10 -11 -16 -12 -26 -3 -8 6 -15 9
-15 5 -1 -3 -2 -12 -3 -18 -1 -7 -7 -12 -14 -11 -11 3 -16 -9 -13 -29 0 -4 -6
-5 -13 -2 -8 3 -19 -3 -26 -15 -6 -11 -16 -20 -23 -18 -7 1 -11 -6 -11 -15 1
-10 -2 -15 -7 -12 -5 3 -9 0 -9 -6 0 -6 -5 -8 -12 -4 -8 5 -9 2 -5 -9 4 -11 1
-17 -9 -17 -8 0 -12 -5 -9 -10 3 -6 -1 -13 -9 -16 -9 -3 -13 -10 -10 -15 3 -5
1 -9 -5 -9 -5 0 -8 -9 -6 -21 3 -17 1 -19 -10 -9 -11 9 -13 6 -11 -15 2 -14
-1 -28 -7 -32 -6 -4 -7 -1 -2 8 7 12 5 12 -6 1 -12 -11 -12 -14 1 -22 13 -8
13 -10 -1 -10 -11 0 -15 -8 -13 -26 1 -16 -2 -24 -9 -21 -7 3 -13 -6 -13 -22
-1 -14 1 -20 3 -13 3 6 10 12 16 12 6 0 0 -11 -12 -24 -17 -18 -19 -26 -10
-31 8 -6 10 -4 4 5 -5 9 -4 11 4 6 15 -10 5 -26 -17 -26 -13 0 -13 -2 4 -15
10 -8 14 -15 8 -15 -6 0 -11 -7 -11 -15 0 -8 5 -15 11 -15 6 0 4 -5 -4 -10
-12 -8 -13 -11 -1 -19 11 -7 11 -9 0 -14 -11 -4 -11 -6 -1 -6 8 -1 10 -6 5
-13 -12 -20 -12 -39 -1 -31 7 4 9 -2 6 -15 -4 -12 -1 -22 4 -22 6 0 5 -6 -2
-15 -11 -13 -10 -14 4 -9 12 5 15 2 9 -12 -5 -13 -3 -15 8 -9 8 4 11 5 7 0 -4
-4 -2 -15 5 -24 11 -14 10 -14 -6 -2 -9 8 -20 11 -24 7 -3 -3 -1 -6 5 -6 7 0
12 -7 12 -15 0 -8 6 -15 14 -15 8 0 12 -9 11 -25 -2 -14 1 -25 6 -25 5 0 14
-11 21 -25 6 -13 16 -21 22 -18 6 4 6 0 -1 -9 -15 -17 -5 -32 11 -18 8 6 12 2
13 -13 1 -12 7 -23 13 -25 20 -7 40 -34 33 -45 -4 -6 -1 -8 8 -5 16 6 61 -36
51 -48 -4 -4 1 -4 10 -1 10 3 20 2 24 -4 3 -6 12 -8 19 -5 8 3 11 -2 8 -15 -3
-11 0 -19 6 -19 7 0 10 4 7 8 -3 5 1 9 9 9 8 0 13 -2 10 -5 -5 -5 20 -32 30
-32 3 0 3 5 0 11 -4 6 2 5 14 -3 12 -7 21 -17 21 -23 0 -5 5 -3 10 5 5 8 10
10 10 4 0 -11 7 -13 59 -16 17 -1 28 -5 25 -10 -5 -8 8 -11 61 -10 76 0 86 2
79 15 -4 6 2 4 13 -6 21 -18 22 -18 32 0 6 10 11 14 11 9 0 -5 7 -3 15 4 13
11 15 10 9 -6 -5 -18 -5 -18 9 -2 11 14 16 15 27 5 10 -9 11 -9 6 1 -7 11 -3
14 27 16 6 1 15 5 19 10 9 14 40 16 54 5 8 -7 14 -6 19 1 4 6 3 9 -2 8 -4 -2
-8 2 -8 7 0 6 3 9 8 8 4 -2 7 1 7 7 0 5 6 7 14 4 8 -3 21 5 30 17 18 26 57 35
48 11 -3 -10 -1 -13 6 -8 7 4 12 3 12 -3 0 -6 11 -13 25 -17 15 -4 22 -11 18
-18 -3 -6 0 -5 8 2 11 10 17 8 32 -10 10 -13 16 -18 13 -12 -3 6 1 11 9 11 8
0 12 -4 9 -8 -2 -4 5 -13 17 -19 17 -10 20 -9 13 2 -6 11 -5 11 8 0 9 -8 27
-12 39 -10 13 2 24 -3 26 -12 4 -13 3 -13 -6 0 -7 9 -11 10 -11 3 0 -20 18
-24 29 -6 6 10 11 13 11 6 0 -7 18 -11 50 -10 28 1 52 -2 54 -8 3 -5 5 -4 5 4
1 11 4 11 16 1 12 -10 15 -9 15 4 0 16 2 16 15 2 18 -17 49 -10 41 10 -3 8 0
11 9 7 8 -3 13 -9 10 -13 -3 -5 2 -7 12 -6 9 2 20 11 24 22 7 18 8 18 9 -1 1
-19 1 -19 11 -1 9 15 13 16 20 5 7 -11 9 -11 9 3 0 12 6 16 20 13 13 -3 18 0
14 7 -5 7 -1 9 9 5 12 -4 17 -1 17 11 0 13 2 14 9 4 7 -11 9 -11 14 2 4 9 13
13 21 10 8 -3 25 9 41 30 15 20 34 36 42 36 8 0 12 4 9 9 -9 13 41 54 56 45 7
-4 10 -3 5 1 -4 5 3 20 15 34 l23 26 -24 -20 -24 -20 14 23 c8 12 17 23 21 23
5 1 13 2 18 3 14 1 17 13 6 23 -5 5 -6 2 -1 -6 6 -10 4 -12 -5 -6 -10 6 -9 12
8 25 16 14 18 20 9 30 -9 10 -9 11 1 6 6 -4 12 -2 12 4 0 6 5 8 13 4 7 -5 6 0
-3 11 -14 17 -13 18 4 12 16 -6 17 -5 6 8 -10 12 -10 15 0 15 10 0 10 3 0 15
-11 13 -10 14 5 9 13 -5 16 -4 11 5 -4 6 -2 19 6 28 11 15 11 16 -6 10 -16 -6
-17 -5 -7 7 7 8 10 20 6 26 -3 5 0 13 9 16 8 3 17 13 20 21 5 13 4 14 -8 4
-11 -9 -16 -9 -22 0 -4 8 -3 9 4 5 11 -7 17 11 13 42 -1 6 4 12 11 12 10 0 10
2 -1 9 -8 5 -11 16 -8 25 3 8 1 18 -5 22 -7 5 -8 2 -3 -6 5 -9 4 -11 -4 -6 -6
4 -8 13 -4 19 13 21 10 46 -6 52 -14 6 -14 8 2 20 18 13 17 14 -3 20 -17 5
-19 9 -9 21 10 12 10 17 0 27 -10 9 -11 8 -6 -8 6 -16 5 -17 -4 -5 -6 8 -11
23 -11 33 0 10 -4 15 -10 12 -6 -4 -7 1 -3 11 5 13 3 15 -8 9 -12 -8 -12 -6 0
8 12 15 11 17 -2 17 -11 0 -14 5 -10 17 4 11 3 14 -5 9 -7 -4 -12 -1 -12 9 0
9 -4 14 -8 11 -4 -2 -14 5 -22 17 -12 20 -12 21 3 9 12 -10 17 -10 23 -1 4 7
3 9 -4 5 -6 -3 -17 2 -24 11 -7 10 -25 24 -40 32 -16 8 -24 19 -21 28 3 8 0
13 -8 11 -8 -2 -13 2 -12 9 1 6 -8 10 -21 9 -18 -2 -23 1 -18 12 4 11 1 14
-12 9 -10 -4 -15 -3 -11 3 3 6 1 10 -5 10 -6 0 -9 4 -6 9 4 5 -4 7 -16 4 -19
-4 -20 -3 -8 7 12 10 11 11 -7 7 -13 -3 -23 -1 -23 5 0 5 -4 7 -9 4 -5 -4 -11
-2 -13 4 -2 6 -17 11 -35 13 -17 1 -29 5 -27 8 2 4 -3 10 -12 13 -8 3 -12 2
-9 -4 3 -6 -1 -7 -9 -4 -9 3 -13 11 -9 18 3 6 1 6 -8 -1 -19 -18 -32 -16 -25
5 5 14 4 14 -9 -2 -8 -11 -15 -15 -15 -10 0 10 -13 14 -47 14 -49 0 -53 -2
-46 -13 4 -7 0 -6 -10 2 -14 11 -17 11 -17 0 0 -9 -3 -10 -8 -4 -10 14 -36 12
-54 -2 -10 -9 -18 -9 -25 -2 -7 7 -15 5 -27 -6 -9 -10 -25 -15 -36 -12 -13 3
-20 0 -20 -10 0 -8 -4 -11 -10 -8 -5 3 -10 2 -10 -3 0 -6 -8 -9 -17 -8 -10 0
-17 -4 -16 -10 1 -8 -6 -10 -19 -6 -16 4 -19 2 -13 -8 6 -10 4 -12 -9 -7 -9 4
-15 3 -12 -2 3 -5 -2 -15 -11 -22 -12 -10 -14 -10 -9 -1 4 6 2 12 -3 12 -6 0
-11 -4 -11 -10 0 -5 -5 -10 -11 -10 -5 0 -7 5 -4 11 4 6 0 9 -11 7 -14 -2 -18
2 -16 17 2 16 1 17 -7 6 -8 -12 -11 -12 -25 1 -8 9 -13 18 -10 21 3 3 -1 5 -8
4 -33 -1 -49 4 -43 13 4 6 1 9 -7 8 -7 -2 -12 3 -10 10 1 8 -2 11 -8 7 -6 -3
-7 -12 -4 -18 5 -9 4 -9 -6 0 -7 6 -19 9 -26 6 -9 -3 -14 2 -15 13 0 12 -3 14
-6 6 -4 -10 -8 -10 -20 0 -18 14 -46 20 -38 8 3 -5 -7 -7 -22 -4 -15 3 -31 11
-35 17 -5 8 -8 6 -8 -6 0 -10 -5 -15 -10 -12 -6 4 -8 11 -5 16 4 5 1 9 -4 9
-6 0 -11 -5 -11 -11 0 -8 -4 -8 -13 -1 -8 7 -18 7 -27 2z m20 -249 c0 11 2 11
10 -1 9 -13 10 -13 10 0 0 13 1 13 10 0 8 -12 10 -12 10 -1 0 10 3 11 14 2 8
-7 20 -11 28 -10 28 3 39 -1 32 -13 -5 -9 -2 -9 9 1 13 10 17 10 17 1 0 -7 8
-10 20 -7 15 4 20 0 21 -16 0 -21 1 -21 9 -2 8 19 9 19 9 -2 1 -12 6 -25 13
-29 7 -5 8 -3 3 6 -5 8 -4 11 2 7 8 -5 10 -30 4 -56 -1 -2 -8 2 -16 9 -14 11
-14 10 -6 -12 5 -14 5 -31 1 -38 -5 -8 -6 -18 -4 -22 3 -5 -1 -11 -10 -14 -8
-3 -12 -12 -9 -20 3 -8 -1 -21 -8 -30 -10 -13 -10 -17 2 -25 12 -7 12 -9 -1
-10 -8 -1 -19 -1 -23 0 -5 1 -6 -3 -2 -8 3 -6 13 -7 23 -4 14 5 15 3 5 -8 -15
-16 -17 -33 -3 -24 6 3 7 -1 4 -9 -3 -9 -9 -14 -13 -12 -4 3 -7 -4 -7 -14 0
-10 5 -16 11 -13 7 2 12 -3 12 -11 0 -8 -7 -12 -16 -9 -13 4 -13 2 1 -10 13
-10 15 -16 6 -25 -7 -7 -8 -12 -2 -12 5 0 11 -12 12 -27 1 -15 8 -30 15 -35 9
-6 8 -8 -3 -9 -10 0 -8 -3 5 -9 19 -8 19 -9 1 -9 -19 -1 -19 -1 -1 -14 10 -8
15 -19 11 -25 -3 -6 -1 -14 5 -18 8 -5 9 -3 4 6 -5 9 -4 11 4 6 9 -6 9 -11 0
-22 -6 -7 -9 -20 -6 -28 4 -10 1 -13 -7 -10 -8 3 -22 -5 -31 -18 l-17 -23 7
25 7 25 -17 -23 c-13 -18 -20 -21 -31 -11 -11 9 -16 6 -23 -12 -5 -13 -10 -19
-10 -13 -1 12 -31 15 -31 2 0 -4 -5 -8 -11 -8 -5 0 -8 4 -5 8 3 5 -1 9 -9 9
-8 0 -12 -4 -10 -8 3 -4 -2 -9 -10 -13 -9 -3 -15 0 -15 9 0 17 -16 20 -25 5
-4 -6 -11 -8 -16 -4 -5 3 -7 9 -5 13 3 4 -1 8 -9 8 -8 0 -12 -4 -9 -8 2 -4 0
-10 -6 -14 -5 -3 -10 1 -10 10 0 9 -4 13 -10 10 -5 -3 -10 -1 -10 6 0 8 -5 7
-17 -2 -9 -8 -14 -9 -11 -4 3 6 0 16 -8 23 -9 8 -14 9 -14 2 0 -7 -5 -6 -14 2
-8 7 -12 16 -10 20 2 3 -4 5 -13 3 -27 -4 -56 25 -42 42 10 11 8 12 -6 7 -13
-5 -16 -4 -11 4 4 7 2 12 -4 12 -6 0 -8 5 -4 12 4 6 3 8 -3 5 -14 -9 -41 24
-38 46 2 9 -2 17 -8 17 -8 0 -7 3 1 9 11 6 9 9 -6 13 -21 6 -24 45 -3 57 10 6
9 10 -4 14 -10 5 -14 3 -9 -5 5 -7 3 -8 -5 -3 -9 5 -10 10 -2 18 7 7 7 14 0
23 -7 8 -5 17 6 28 15 15 15 16 -1 16 -10 0 -14 3 -10 8 4 4 13 7 19 7 7 0 12
16 12 42 -1 23 2 40 6 37 4 -2 10 3 13 12 4 10 2 13 -6 8 -7 -4 -8 -3 -4 4 4
7 14 12 22 12 8 0 14 5 14 11 0 5 -4 7 -10 4 -6 -3 -7 1 -4 9 3 9 11 14 17 13
7 -1 11 6 11 15 -1 10 2 16 6 13 5 -3 15 1 23 9 8 8 18 12 21 8 4 -3 4 1 1 10
-4 9 -1 19 6 24 7 4 10 3 5 -4 -3 -6 -2 -14 4 -17 6 -4 10 -3 9 2 -3 19 2 33
12 33 5 0 7 -6 3 -12 -5 -9 -3 -9 9 1 9 7 14 18 10 24 -3 6 -1 7 5 3 7 -4 12
-1 12 6 0 8 3 9 8 3 4 -5 15 -11 25 -11 14 -2 15 1 7 11 -9 11 -5 12 19 9 20
-3 31 -1 31 7 0 8 4 8 15 -1 12 -10 15 -10 15 1z m725 -1 c5 -8 11 -7 21 1 11
9 14 8 14 -2 0 -11 2 -11 10 1 7 10 10 11 10 2 0 -8 11 -11 35 -9 20 3 33 0
32 -6 -1 -6 5 -12 13 -13 8 0 23 -2 34 -2 13 -2 16 -7 12 -19 -4 -10 -4 -14 0
-11 4 4 16 3 27 -3 15 -9 18 -8 12 2 -5 8 -4 10 3 5 7 -4 12 -15 12 -24 0 -15
2 -15 10 -2 7 11 10 11 10 2 0 -8 5 -10 13 -6 7 5 7 2 -2 -10 -8 -9 -10 -16
-5 -15 18 3 37 -1 31 -7 -10 -11 13 -46 27 -41 7 3 13 -1 13 -9 0 -7 -5 -11
-11 -8 -6 3 0 -4 13 -15 21 -19 21 -21 5 -22 -17 0 -16 -1 2 -9 15 -6 21 -16
19 -34 -2 -16 3 -30 13 -37 16 -10 15 -10 0 -5 -10 3 -18 1 -18 -4 0 -6 5 -10
11 -10 8 0 8 -4 1 -13 -7 -8 -7 -18 -2 -27 6 -9 4 -20 -3 -29 -7 -9 -7 -12 -1
-8 6 3 11 0 11 -8 0 -8 -5 -11 -10 -8 -6 4 -7 -4 -3 -21 4 -17 2 -26 -5 -26
-7 0 -9 -3 -6 -6 3 -4 1 -16 -5 -28 -7 -11 -11 -25 -9 -31 1 -5 -1 -7 -5 -3
-4 4 -13 3 -21 -3 -11 -10 -11 -15 -1 -27 11 -13 10 -15 -4 -10 -11 5 -18 0
-21 -14 -4 -13 -10 -17 -18 -12 -9 5 -10 2 -6 -9 3 -9 1 -19 -5 -23 -7 -4 -8
-3 -4 4 10 16 -2 15 -19 -2 -8 -7 -11 -17 -7 -22 4 -5 -2 -2 -12 6 -11 8 -17
10 -13 4 4 -7 0 -17 -8 -24 -13 -11 -14 -10 -9 6 4 14 1 13 -14 -6 -12 -14
-24 -21 -28 -17 -4 4 -18 0 -32 -9 -13 -9 -21 -11 -18 -5 4 6 2 11 -3 11 -6 0
-11 -4 -11 -10 0 -5 -7 -10 -16 -10 -8 0 -12 5 -9 10 3 6 1 10 -4 10 -6 0 -11
-5 -11 -11 0 -5 -4 -7 -10 -4 -5 3 -10 1 -10 -4 0 -6 -4 -11 -10 -11 -5 0 -7
8 -3 18 3 9 3 14 -2 10 -4 -4 -14 -3 -22 4 -11 8 -12 7 -7 -5 4 -11 0 -15 -13
-13 -11 2 -17 11 -16 22 1 18 1 18 -13 0 -8 -11 -14 -14 -14 -7 0 7 -4 9 -10
6 -5 -3 -10 2 -10 12 0 15 -2 16 -10 3 -7 -11 -10 -11 -10 -2 0 7 -4 10 -10 7
-5 -3 -10 0 -10 8 0 17 -54 39 -66 29 -5 -4 -3 0 4 10 10 12 10 18 1 24 -8 4
-9 3 -5 -4 4 -7 2 -12 -3 -12 -6 0 -11 7 -11 15 0 8 -9 19 -20 25 -11 6 -20
20 -20 31 0 11 -4 17 -10 14 -6 -4 -10 5 -10 20 0 14 -4 24 -8 21 -5 -3 -9 0
-9 7 0 7 -4 21 -9 31 -5 14 -4 17 4 12 13 -8 6 20 -11 42 -7 8 -7 16 -1 20 5
4 10 15 12 26 2 13 -1 16 -10 10 -10 -6 -10 -4 1 9 11 14 11 17 0 17 -12 0
-12 2 0 9 8 5 12 19 9 34 -3 18 -1 24 8 20 8 -3 14 6 16 24 2 15 8 27 15 26 7
-2 10 4 7 12 -4 8 -1 15 6 15 6 0 8 5 5 10 -3 6 1 10 10 10 11 0 15 5 12 14
-3 8 5 18 19 25 13 6 24 15 24 21 0 5 7 10 15 10 8 0 15 4 15 9 0 6 9 8 21 6
18 -4 19 -2 8 11 -7 8 -8 14 -3 13 23 -4 55 2 50 10 -3 4 5 6 18 4 13 -3 27 0
30 6 9 14 23 14 31 1z m210 -29 c3 -5 2 -12 -3 -15 -5 -3 -9 1 -9 9 0 17 3 19
12 6z m-1250 -231 c1 -10 -2 -17 -6 -14 -4 2 -7 13 -6 24 2 23 10 17 12 -10z
m1405 -565 c-7 -8 -17 -12 -23 -8 -6 4 -3 9 9 14 27 11 28 11 14 -6z m-740 1
c0 -3 -4 -8 -10 -11 -5 -3 -10 -1 -10 4 0 6 5 11 10 11 6 0 10 -2 10 -4z
m-376 -94 c3 -5 -1 -9 -9 -9 -8 0 -12 4 -9 9 3 4 7 8 9 8 2 0 6 -4 9 -8z"/>
<path d="M2830 2161 c-7 -15 -7 -22 2 -27 7 -4 10 -4 6 1 -4 4 -3 16 3 26 5
11 7 19 5 19 -3 0 -10 -9 -16 -19z"/>
<path d="M2420 1736 c0 -2 7 -9 15 -16 9 -7 15 -8 15 -2 0 5 -7 12 -15 16 -8
3 -15 4 -15 2z"/>
<path d="M3810 2411 c0 -6 4 -13 10 -16 6 -3 7 1 4 9 -7 18 -14 21 -14 7z"/>
<path d="M3830 1575 c-7 -9 -11 -17 -9 -20 3 -2 10 5 17 15 14 24 10 26 -8 5z"/>
<path d="M4730 849 c0 -5 5 -7 10 -4 6 3 10 8 10 11 0 2 -4 4 -10 4 -5 0 -10
-5 -10 -11z"/>
<path d="M4175 4060 c3 -5 8 -10 11 -10 2 0 4 5 4 10 0 6 -5 10 -11 10 -5 0
-7 -4 -4 -10z"/>
<path d="M4175 3980 c3 -5 8 -10 11 -10 2 0 4 5 4 10 0 6 -5 10 -11 10 -5 0
-7 -4 -4 -10z"/>
<path d="M4175 3900 c3 -5 8 -10 11 -10 2 0 4 5 4 10 0 6 -5 10 -11 10 -5 0
-7 -4 -4 -10z"/>
<path d="M4175 3820 c3 -5 8 -10 11 -10 2 0 4 5 4 10 0 6 -5 10 -11 10 -5 0
-7 -4 -4 -10z"/>
<path d="M4175 3740 c3 -5 8 -10 11 -10 2 0 4 5 4 10 0 6 -5 10 -11 10 -5 0
-7 -4 -4 -10z"/>
<path d="M4175 3660 c3 -5 8 -10 11 -10 2 0 4 5 4 10 0 6 -5 10 -11 10 -5 0
-7 -4 -4 -10z"/>
<path d="M4175 3580 c3 -5 8 -10 11 -10 2 0 4 5 4 10 0 6 -5 10 -11 10 -5 0
-7 -4 -4 -10z"/>
<path d="M4170 3386 c0 -2 7 -7 16 -10 8 -3 12 -2 9 4 -6 10 -25 14 -25 6z"/>
<path d="M170 1830 c0 -5 5 -10 11 -10 5 0 7 5 4 10 -3 6 -8 10 -11 10 -2 0
-4 -4 -4 -10z"/>
<path d="M934 1729 c-3 -6 -2 -15 3 -20 5 -5 9 -1 9 11 0 23 -2 24 -12 9z"/>
</g>
</svg>
