<?xml version="1.0" standalone="no"?>
<!DOCTYPE svg PUBLIC "-//W3C//DTD SVG 20010904//EN"
 "http://www.w3.org/TR/2001/REC-SVG-20010904/DTD/svg10.dtd">
<svg version="1.0" xmlns="http://www.w3.org/2000/svg"
 width="192.000000pt" height="192.000000pt" viewBox="0 0 192.000000 192.000000"
 preserveAspectRatio="xMidYMid meet">
<metadata>
Created by potrace 1.11, written by Peter Selinger 2001-2013
</metadata>
<g transform="translate(0.000000,192.000000) scale(0.100000,-0.100000)"
fill="#000000" stroke="none">
<path d="M105 1687 c-41 -14 -93 -71 -100 -110 -7 -39 -1 -794 6 -821 3 -11
11 -22 17 -24 7 -2 12 -9 12 -15 0 -7 19 -23 41 -35 36 -21 55 -24 158 -25
l116 -1 0 -140 c-1 -143 6 -199 30 -222 7 -8 15 -18 17 -23 1 -5 20 -18 40
-29 37 -19 58 -19 695 -19 682 0 682 0 731 42 50 43 52 59 52 476 0 402 -2
423 -43 467 -42 45 -73 54 -193 54 -97 1 -114 3 -115 17 -1 9 -2 75 -3 146 -2
132 -11 195 -26 195 -5 0 -11 8 -14 18 -4 10 -24 28 -47 39 -39 20 -54 20
-692 20 -407 0 -663 -4 -682 -10z m1346 -104 c15 -14 22 -35 23 -62 0 -23 -1
-42 -4 -42 -14 -4 -1357 -5 -1367 -1 -16 5 -10 86 8 104 8 8 20 17 28 19 7 3
301 5 652 4 l638 0 22 -22z m20 -215 c1 -23 1 -63 0 -86 -1 -18 -29 -19 -688
-18 l-688 1 -1 55 c0 30 3 57 7 60 4 3 314 5 688 5 642 0 681 -1 682 -17z
m-1107 -210 c-5 -7 -8 -100 -9 -208 l-1 -195 -112 -2 c-154 -2 -148 -10 -150
224 0 97 2 181 4 185 3 5 66 8 140 8 104 0 133 -3 128 -12z m1430 1 c13 -6 27
-20 29 -30 3 -11 4 -190 4 -399 -2 -349 -3 -381 -20 -397 -16 -17 -58 -18
-664 -18 -647 -1 -647 -1 -672 21 l-24 21 1 364 c0 200 1 374 1 386 1 12 11
31 23 43 21 20 32 20 659 20 450 0 645 -3 663 -11z"/>
<path d="M948 954 c-20 -7 -38 -10 -41 -8 -2 2 -28 -18 -58 -46 -30 -27 -50
-50 -46 -50 4 0 1 -13 -7 -28 -24 -46 -15 -140 18 -197 16 -26 37 -50 47 -52
11 -3 19 -9 19 -13 0 -25 161 -49 188 -28 6 6 12 7 12 3 0 -3 12 3 27 15 18
14 30 17 37 10 5 -5 18 -10 27 -10 10 0 19 -4 21 -9 2 -6 25 -13 52 -16 74
-10 132 10 190 68 26 26 45 51 42 54 -3 3 -1 12 5 19 18 22 18 119 0 156 -8
18 -19 35 -23 36 -4 2 -8 8 -8 14 0 14 -49 57 -80 70 -51 20 -118 29 -126 16
-3 -5 -9 -6 -14 -3 -5 3 -24 -2 -42 -11 -38 -20 -78 -26 -78 -14 0 9 -65 30
-105 34 -12 2 -37 -3 -57 -10z m115 -100 c21 -12 24 -24 7 -34 -14 -9 -20
-111 -7 -127 5 -7 6 -13 3 -13 -4 0 -2 -9 4 -20 9 -16 6 -21 -17 -33 -88 -43
-195 37 -178 133 8 47 22 69 56 89 33 20 102 23 132 5z m290 -10 c49 -36 66
-126 31 -165 -9 -10 -13 -19 -8 -19 5 0 -6 -9 -25 -21 -90 -55 -189 -9 -199
91 -5 58 11 89 61 121 39 24 102 21 140 -7z"/>
</g>
</svg>
